<?xml version="1.0" encoding="UTF-8"?>
<!DOCTYPE svg PUBLIC "-//W3C//DTD SVG 1.1//EN" "http://www.w3.org/Graphics/SVG/1.1/DTD/svg11.dtd">
<svg version="1.1" xmlns="http://www.w3.org/2000/svg" xmlns:xlink="http://www.w3.org/1999/xlink" x="0px" y="0px" width="965.871px" height="841.891px" viewBox="1540.138 0 965.871 841.891" enable-background="new 1540.138 0 965.871 841.891" xml:space="preserve" fill="black">
<g>
	<g id="Logo">
		<g id="Cat">
			<g id="Body">
				<path id="Body_4_" fill="#0F0F0F" d="M2266.681,40.986c-0.606,0-0.676,0.332,0.987,1.502c4.747,3.337,8.524,6.437,10.358,8.271      c4.885,4.887,6.274,7.899,7.521,9.406c3.666,4.429,5.783,6.692,8.106,11.036s4.693,9.311,5.732,12.904      c1.26,4.355,3.196,9.451,4.344,15.253c0.851,4.302,2.195,11.178,2.729,14.749c0.343,2.296,0.672,4.821,0.955,6.936      c-1.821,0.463-3.402,1.03-4.715,1.575c-0.767-3.529-2.277-8.78-3.829-12.497c-1.321-3.165-4.736-10.257-6.15-13.389      s-3.113-6.614-5.946-11.323c-3.233-5.374-8.198-10.617-11.125-14.132c-3.263-3.917-9.51-7.396-12.021-8.587      c-3.27-1.553-8.239-2.782-11.142-3.285c-2.572-0.446-4.526-0.579-5.525-0.149c-1.305,0.561-2.23,2.058,0.404,2.626      c1.483,0.321,4.167-0.117,4.104-0.475c-0.139-0.796,5.521,0.85,8.249,1.658c2.727,0.808,9.359,4.915,13.313,8.381      c2.58,2.262,7.157,8.146,9.683,11.984s7.547,11.693,8.961,14.724s2.614,4.95,4.332,9.597c1.717,4.646,2.832,7.698,3.534,10.606      c0.574,2.38,1.195,3.847,1.7,4.909c-0.175,0.081-0.395,0.173-0.554,0.248c-2.671,1.274-5.696,3.122-7.209,4.132      c-3.1,2.069-2.757,2.92-3.827,2.318c-3.358-1.886-4.904-1.894-7.607-2.167c-1.608-0.153-3.25-0.019-5.643-0.151      c-3.272-0.183-8.111-1.763-11.287-3.224c-2.693-1.238-9.213-5.139-11.692-7.055c-3.402-2.63-5.619-3.898-7.607-4.939      c-1.142-0.597-2.229-0.959-3.377-1.008c-1.247-0.053-3.398,1.619-3.529,2.977c-0.063,0.654-1.262,0.754-2.018,0.754      c-0.831-0.001-0.326,1.904-0.399,3.176c-0.196,3.379,2.429,8.936,3.628,11.992c0.94,2.399,6.801,10.833,9.021,13.202      c1.74,1.858,8.309,8.612,10.934,10.328c0.252,0.15-0.243,0.745-0.706,3.326c-0.233,1.3,0.245,4.194,0.655,5.796      c0.139,0.542,0.32,1.099,0.475,1.631c-0.877-0.14-1.711-0.236-2.432-0.308c-2.621-0.262-2.959-1.326-6.363-1.469      c-3.331-0.14-7.408-0.534-10.641-0.534c-3.233,0-4.689-0.606-8.41-0.867c-3.449-0.242-4.707-0.349-9.327-0.22      c-4.952,0.139-15.778,0.498-23.438,2.197c-7.33,1.627-13.112,2.908-19.798,6.364c-2.771,1.432-8.023,4.557-9.643,5.479      c-2.128,1.212-4.069,3.062-4.576,3.447c-0.812,0.617-1.974,1.496-1.486,2.257c0.976,1.522,0.512,1.916,1.825,1.814      c1.542-0.749,2.535-1.638,3.644-2.567c1.415-1.212,1.958-1.493,2.558-2.651c0.441-0.852,2.021-1.722,4.445-3.334      c3.296-2.191,6.833-3.517,9.799-4.949c3.949-1.907,7.996-2.78,12.377-3.695c4.38-0.915,9.398-1.555,13.583-2.062      c7.222-0.875,13.282-1.237,19.396-0.809c2.821,0.198,9.53,0.617,15.454,1.313c3.712,0.436,9.365,1.129,13.283,1.909      c-0.004,0.236-0.052,0.437-0.172,0.58c-0.504,0.604-1.529,2.275-2.669,3.273c-0.956,0.837-2.31,2.159-1.914,3.023      c0.086,0.188,0.107,0.373,0.104,0.558c-3.8-0.402-8.062,0.285-11.056,0.656c-3.146,0.391-8.663,1.082-11.289,1.588      c-2.627,0.505-18.403,4.188-21.636,4.996c-3.233,0.809-12.87,4.005-18.741,7.07c-5.079,2.653-13.443,8.096-16.406,10.025      c-3.257,2.121-6.141,4.285-7.034,4.914c-1.267,0.892-2.272,2.115-2.925,3.475c-0.285,0.595-0.143,3.168,0.992,2.247      c1.336-1.084,2.543-3.602,6.386-6.438c1.353-0.999,11.226-7.232,14.647-9.458c4.801-3.123,13.211-6.452,18.853-8.604      c6.354-2.424,18.075-4.701,22.515-5.714c3.208-0.732,13.257-2.689,21.811-3.798c1.406-0.182,2.658-0.241,3.709-0.259      c-0.357,0.739-1.152,1.421-1.646,1.969c-0.907,1.008-1.291,3.002-2.167,4.031c-1.025,1.206-1.464,2.675-1.862,4.232      c-0.277,1.085-0.38,2.261-0.102,3.375c0.303,1.21,1.461,2.67,1.864,2.972c0.052,0.471,0.255,0.955,0.487,1.439      c-6.22,1.483-16.651,4.441-19.888,5.475c-6.606,2.111-17.17,6.005-22.318,8.182c-2.703,1.143-7.026,3.702-9.539,5.677      c-5.706,4.479-11.214,8.918-15.5,14.759c-1.414,1.932-2.585,4.931-2.799,6.476c-0.156,1.131,1.526,1.13,1.658,0.428      c0.147-0.791,0.342-2.65,2.109-5.014c2.425-3.242,6.04-7.329,8.329-9.354c2.399-2.12,10.32-7.653,13.567-9.751      c3.063-1.979,12.806-5.31,16.577-6.695c3.857-1.418,9.612-4.449,28.398-8.965c0.25,0.506,0.474,1.006,0.531,1.479      c0.172,1.434,1.206,2.317,2.016,3.123c1.163,1.159,2.267,1.815,2.67,2.319s1.209,1.512,0.503,3.881      c-0.503,1.687-0.071,3.268-0.403,5.088c-0.353,1.936-0.859,2.765-1.008,4.133c-0.163,1.508-1.764,1.562-1.563,2.267      c0.202,0.706,1.328,1.538,0.707,1.663c-0.318,0.063-2.949,2.578-3.883,3.378c-1.767,1.513-2.82,2.869-4.231,4.333      c-0.816,0.846-1.499,2.638-2.419,4.586c-0.608,1.288-1.609,3.442-2.367,4.683c-1.109,1.815-2.473,4.019-3.326,6.15      c-1.379,3.44-1.249,7.183-2.016,10.079c-0.637,2.401-1.734,8.329-1.965,9.925c-0.318,2.217-2.016,5.392-2.52,6.804      c-0.274,0.765-2.369,2.517-3.528,3.021c-1.021,0.444-1.661,1.211-4.685-0.2c-3.023-1.41-5.313-3.301-7.508-4.737      c-2.789-1.824-4.29-2.973-5.744-3.175c-1.461-0.203-2.962,0.416-2.873,0.705c0.253,0.819,0.4,0.807-0.305,0.907      s-5.963-1.08-8.669-1.412c-6.49-0.798-10.236-1.727-11.786-2.216c-1.916-0.604-3.809-1.71-5.342-2.367      c-2.118-0.907-3.827-2.115-4.938-3.377c-0.628-0.713-1.059-0.855-1.411-1.41c-0.271-0.426-2.039,2.34-2.622,4.084      c-0.555,1.662-0.762,3.442-0.754,4.533c0.007,1.1,0.998,1.398,1.058,1.61c0.082,0.295-5.938,2.084-6.955,2.57      c-1.159,0.556-3.846,2.184-5.396,2.976c-2.638,1.348-5.578,3.16-8.059,4.634c-1.588,0.943-6.655,3.496-8.064,3.427      c-2.067-0.101-3.974-0.839-6.193-1.06c-2.016-0.2-4.538-0.704-4.941-1.107c-0.402-0.403-0.607-1.527-1.209-0.856      c-0.907,1.011-2.731,2.303-2.317,4.638c0.36,2.027,1.306,3.578,2.268,5.034c1.306,1.977,4.431,4.438,5.745,5.344      c0.177,0.122-2.979,2.998-4.385,4.183c-2.087,1.76-6.137,7-7.607,8.768c-2.398,2.882-7.707,7.856-9.219,9.219      c-1.184,1.067-4.194,3.453-6.302,3.682c-2.148,0.232-4.556-1.34-5.847-1.814c-0.539-0.198-0.303,1.058-0.856,1.26      c-0.67,0.243-1.459-0.202-1.31,1.006c0.374,3.024,2.716,8.002,5.041,9.174c2.015,1.016,4.028,1.965,5.391,1.863      c0.804-0.06,0.691,0.12-0.557,1.21c-2.25,1.965-5.629,6.181-7.609,9.073c-2.237,3.27-7.105,10.759-7.961,12.896      c-2.018,5.046-5.467,5.9-6.698,7.606c-1.056,1.464-3.682,2.831-4.234,3.427c-0.655,0.706-0.426,2.305-0.808,2.773      c-0.453,0.556-0.914,1.952,0.808,2.369c2.41,0.583,2.853,1.031,3.375,1.41c0.555,0.403,1.664,0.857,2.823,1.008      c1.02,0.133,2.822,0.301,3.427,0.402c0.604,0.101-0.203,0.655-0.606,1.613c-0.305,0.726-3.689,9.031-3.979,13.906      c-0.179,2.999-1.606,8.629-2.169,11.591c-0.479,2.528-1.642,9.42-2.115,12.245c-0.632,3.768-2.538,16.131-3.123,18.997      c-0.541,2.65-1.395,9.661-2.016,11.386c-0.923,2.559-1.151,10.571-0.958,11.645c0.1,0.553,0.956-0.927,0.856-0.052      c-0.147,1.276-1.014,5.878-1.512,8.364c-0.413,2.067-1.905,6.607-2.668,8.36c-0.782,1.797-2.878,6.352-2.976,7.359      c-0.151,1.563-1.26,4.484-1.764,5.694c-0.504,1.209-0.907,3.248-1.562,3.628c-0.966,0.562-0.775,1.052-1.159,2.067      c-0.706,1.866-2.287,3.882-3.073,6.349c-0.675,2.115-1.604,3.771-2.42,5.543c-0.71,1.542-2.509,3.04-2.772,3.932      c-0.149,0.506-0.794,0.842-1.661,0.906c-0.506,0.037-0.22,0.924,0.403,1.862c0.604,0.909,2.551,1.482,4.132,1.968      c1.617,0.496,2.837,0.171,3.527-0.002c1.009-0.253,1.672-0.228,2.116-0.302c0.908-0.152,0.586,0.647,0.505,1.411      c-0.103,0.958,0.151,1.908,0.855,3.729c0.579,1.496,0.391,2.767,0.252,5.039c-0.096,1.568-0.416,3.761-0.653,4.531      c-0.404,1.312-0.916,2.759-0.556,3.127c0.371,0.379,1.556-0.245,2.066-0.302c0.908-0.102-0.165,0.79-0.656,1.209      c-0.708,0.605-0.606,1.26,0.25,1.159c0.808-0.094,1.766-0.015,2.421-0.704c0.958-1.009,1.059-1.361,1.36-0.958      c0.303,0.403,0.744,1.815,0.958,2.518c0.354,1.159,0.532,2.511,1.108,4.587c0.479,1.728,0.154,3.934,0.251,4.937      c0.151,1.563,0.54,3.496,0.102,6.348c-0.313,2.035-0.582,5.099-0.756,5.846c-0.354,1.514-0.757,4.225-0.757,4.838      c0.001,0.907-0.514,1.835-0.855,2.521c-0.504,1.01-1.013,1.385-2.317,2.367c-0.742,0.559-1.533,0.933-2.319,1.412      c-0.974,0.596-1.968,1.741-2.568,2.266c-0.8,0.698-1.537,1.003-2.367,1.513c-0.943,0.579-2.016,0.818-3.377,0.656      c-0.679-0.081-1.891,0.335-2.52,0.002c-0.857-0.454-1.81-0.47-1.008,0.553c0.532,0.681,0.502,1.461,1.409,2.367      c0.907,0.907,1.664,1.412,1.865,1.916c0.202,0.504-0.348,0.614-1.008,1.158c-0.857,0.705-0.991,1.132-1.614,1.209      c-0.608,0.075-1.306,0.17-1.914,0.908c-0.706,0.856-1.66,3.477-1.459,4.484s-0.152,2.014-0.303,3.175      c-0.066,0.509,0.266,1.588,0.451,2.271c0.199,0.734-0.049,1.508-0.653,2.214c-0.604,0.705-1.45,1.429-1.612,2.115      c-0.202,0.857-1.107,1.261-1.511,1.159c-0.403-0.101-0.784,0.27-1.109,0.655c-0.461,0.545-0.533,1.046-1.563,1.614      c-1.463,0.807-1.893,0.317-1.713,1.309c0.316,1.745-0.446,3.105,0.856,3.226c1.477,0.136,2.376,0.121,4.13,0      c1.905-0.132,2.701-0.643,3.528-1.06c1.153-0.582,1.696-0.605,1.965-0.906c0.858-0.96,0.342,0.611,0.152,1.412      c-0.259,1.09-0.394,2.135-0.805,4.08c-0.414,1.952-0.919,4.581-1.312,6.903c-0.273,1.619-0.174,3.638-0.05,5.442      c0.203,2.973,0.372,4.021,0.604,5.845c0.152,1.204,0.21,2.182,0.504,3.174c0.16,0.54,0.346,1.157,0.152,1.966      c-0.255,1.06,0.35,1.26,1.409,0.402c0.783-0.634,1.613-0.854,2.219-2.065c0.255-0.51-0.39,3.438-0.555,4.435      c-0.282,1.701-0.822,7.515-0.906,10.885c-0.054,2.107-0.757,4.824-0.757,6.548c0,1.514-0.101,3.478-0.201,4.841      c-0.12,1.63-0.554,2.813-0.453,4.333c0.106,1.609-0.003,3.237,0.401,5.445c0.501,2.734,0.457,4.172,1.008,6.948      c0.247,1.246,0.937,4.087,0.807,5.747c-0.173,2.2-0.463,4.454-0.403,5.239c0.049,0.654,0.604,1.714,1.209,2.117      c0.605,0.402,2.111,0.354,2.721,0.253c0.498-0.083,1.379-0.744,1.263-0.253c-0.199,0.837-0.055,1.249-0.102,1.813      c-0.186,2.229,0.052,5.845,0,6.702c-0.093,1.52-0.159,3.153-0.354,4.586c-0.231,1.703-0.056,5.006,0.151,6.751      c0.209,1.757,1.485,4.648,1.963,5.694c0.554,1.21,1.704,1.395,1.865,2.469c0.099,0.655,2.245,0.419,2.822-0.301      c0.451-0.563,0.699-0.86,1.513-1.662c0.691-0.682,1.103-1.146,1.159-0.606c0.201,1.918,0.784,4.181,1.511,6.45      c0.955,2.982,1.424,4.908,2.872,8.013c0.249,1.617,0.424,3.456,0.756,5.341c0.362,2.053,1.153,3.502,2.117,4.636      c1.159,1.361,1.775,1.597,3.275,2.165c0.881,0.334,1.008-0.2,1.612,0.304s0.908-0.151,1.109-0.757      c0.202-0.604,0.502-1.108,0.905-1.209c0.402-0.101,1.059-0.705,1.664-1.713c0.604-1.008,0.655-1.359,0.957-2.016      c0.267-0.579,0.738,2.19,1.109,3.68c0.504,2.018,2.179,4.574,2.771,6.601c0.347,1.187,1.989,4.913,3.729,8.214      c1.19,2.257,5.054,7.834,6.247,9.775c1.683,2.736,3.022,3.628,5.289,5.945c1.075,1.099,2.155,2.381,2.925,2.066      c0.721-0.293,0.853-0.685,1.814-1.712c0.467-0.499,0.957-0.707,1.058-1.614s0.706-2.923,0.604-3.628      c-0.101-0.706,0.425-0.478,1.716,0.506c1.448,1.103,2.693,2.325,4.784,3.425c2.478,1.303,4.5,2.042,6.2,2.772      c2.775,1.191,3.536,1.938,4.784,2.72c1.454,0.912,3.936,2.303,8.164,4.687c1.001,0.563,3.481,2.438,4.078,2.92      c0.961,0.777,2.304,2.259,3.229,3.327c0.522,0.604,0.502,1.339,1.662,2.521c0.825,0.841,1.409,2.055,1.613,3.021      c0.198,0.94,0.705,1.655,1.563,1.968c0.553,0.201,1.664-0.454,2.066-0.958c0.403-0.706,0.989-1.287,1.258-2.164      c0.232-0.757,0.684-1.484,0.757-1.867c0.063-0.331,2.095,0.188,3.227,0.252c1.669,0.092,3.628,1.513,5.034,2.267      c3.207,1.718,4.216,1.707,6.756,2.469c4.06,1.217,7.664,2.282,9.676,2.62c3.348,0.563,8.918,1.443,10.228,1.413      c2.169-0.051,4.429,0.178,5.44,0.1c1.134-0.087,4.534,0.612,5.333,0.354c3.568,0.78,0.542,1.873,7.363,4.088      c1.107,0.82,1.849,0.841,2.57,1.461c0.711,0.61,1.969,1.117,2.018,0.857c0.487-0.412,0.478-1.36,0.251-2.117      c-0.226-0.754-0.965-1.808-1.311-3.122c-0.356-1.354-1.938-2.644-2.988-3.664c-1.748-1.698-6.617-3.17-4.014-3.147      c0.912,0.007,2.923-0.101,4.535-0.302c2.017-0.252,3.368-0.192,4.888-0.302c1.567-0.113,2.722,0.201,4.133,0.1      c1.411-0.101,3.454-0.456,5.341-0.656c2.186-0.231,4.233-1.006,5.745-1.409s4.124-1.286,5.393-1.614      c1.563-0.403,4.038-1.211,5.49-1.511c1.427-0.294,3.491-1.582,4.838-2.317c1.406-0.767,3.725-2.368,4.584-3.021      c1.07-0.814,1.452-2.953,0.456-3.981c-0.703-0.727-0.751-1.607-1.813-1.764c-1.029-0.151,0.905-0.908,2.57-2.019      c0.61-0.407,2.354-1.572,3.578-2.82c1.527-1.559,4.869-6.909,5.992-8.513c1.394-1.991,3.98-6.967,5.142-9.022      c0.847-1.499,2.4-6.908,2.721-7.605c0.555-1.211,0.913-2.229-0.604-2.322c-0.414-0.025-0.91-0.069-1.813-0.553      c-0.451,0,1.461-3.73,2.065-4.738s1.262-3.63,1.31-5.895c0.039-1.878,0.353-4.473,0.353-5.997      c0.001-1.815,0.238-4.305,0.459-5.915c0.23-1.697,0.775-2.974,1.207-3.93c0.494-1.097-0.301-1.561-0.35-2.469      c-0.047-0.854-0.734-0.656-2.234-0.989s-1.5-0.333-2.875-0.725c-0.971-0.276-2.705-0.739-2.705-1.142      c0-0.807,0.1-0.756-0.002-1.966c-0.101-1.209-0.525-3.794-0.906-6.089c-0.39-2.352-1.069-5.326-1.915-7.01      c-0.955-1.899-2.204-4.104-2.971-5.641c-1.26-2.522-3.796-4.536-4.839-5.898c-1.159-1.513-4.334-3.226-5.141-3.478      c-0.519-0.162,0.677,2.078-0.505,1.157c-0.906-0.706-4.128-2.721-5.391-3.727c-2.406-1.916-6.895-3.638-10.028-4.737      c-4.942-1.734-11.847-1.632-15.474-0.906c-2.638,0.528-5.64,1.863-7.959,3.78c-1.602,1.322-3.073,3.123-2.719,3.93      c0.383,0.87,0.657,0.854,1.766,1.056c1.108,0.202,0.604,1.059,1.409,1.361c0.807,0.302,1.06-0.251,2.067,0.454      c1.008,0.706,0.955,1.309,2.971,1.813s2.773,0.102,3.781,0.707c1.008,0.604,0.196,1.403,1.964,1.813      c3.278,0.757,3.074,2.169,4.183,2.673s7.237,5.378,8.817,7.104c1.644,1.794,3.67,4.511,5.24,7.156      c1.186,1.996,2.422,4.783,3.023,6.852c0.712,2.445,1.03,6.03,0.505,9.07c-0.534,3.092-1.17,9.48-3.479,12.906      c-1.403,2.081-2.383,5.545-5.646,9.422c-1.037,1.232-5.358,5.338-6.998,6.696c-2.337,1.937-5.895,5.341-11.035,6.299      c-4.988,0.93-6.776,1.708-8.82,1.966c-1.64,0.206-4.065,0.163-6.035,0.412c-3.359,0.327-4.566-0.659-5.858-0.614      c-2.851,0.101-18.395-2.617-23.633-4.433c-4.938-1.711-10.478-4.181-17.334-8.466c-5.455-3.408-10.037-8.022-14.765-12.395      c-4.737-4.383-13.906-14.21-16.376-18.947c-2.334-4.477-6.245-9.727-7.104-12.247c-0.726-2.133-1.06-3.525-1.161-5.037      c-0.101-1.512-1.282-4.937-1.712-6.805c-1.01-4.39-1.999-10.318-2.569-16.124c-0.611-6.231-0.414-13.239-0.353-18.949      c0.038-3.585,0.52-9.025,2.016-13.202c1.662-4.641,4.015-11.639,7.306-17.433c1.854-3.265,4.383-6.348,5.341-7.709      c0.661-0.94,1.312-1.26,1.714-1.059c0.403,0.202,0.335,0.231,0.504,1.21c0.251,1.462,0.706,1.563,1.412,1.311      c0.483-0.173,0.455,0.855,0.403,1.663c-0.038,0.586,1.008-0.051,1.411-1.16c0.402-1.108,2.291-2.284,5.646-3.931      c2.485-1.22,10.324-1.964,15.315-1.611c3.741,0.265,12.544,1.058,15.419,1.31c1.733,0.151,5.694,0.202,7.709,0.102      c2.016-0.101,9.978-0.201,12.699-0.403c2.721-0.201,11.638,0.05,13.652,0.05c2.016,0,3.187,0.341,5.494,0.555      c2.722,0.253,5.848,0.088,8.467,0.051l6.953-0.102c2.52-0.037,3.533-0.05,9.025,0.102c5.556,0.151,7.394,0.256,10.021,0.251      c2.021-0.004,3.63,0.405,5.091,0.455c1.563,0.053,2.885,0.688,2.369,1.461c-0.505,0.755-0.956,1.561,0.151,1.561      c1.615,0,1.946,0.143,3.172,0.757c1.513,0.756,1.663,0.402,2.771,0c1.109-0.403,1.763-0.149,2.924-0.958      c0.351-0.245,0,0.958-0.505,1.865c-0.504,0.907-1.993,2.595,0.558,1.963c1.106-0.274,1.652-0.266,2.77-0.604      c2.043-0.622,2.72-1.058,3.928-2.316c1.678-1.748,1.966-2.77,2.57-3.777s1.312-0.656,2.823-0.254      c1.512,0.403,2.079,0.768,3.828,1.26c1.967,0.553,1.867,1.209,3.278,1.008s1.459-0.353,2.164-0.654      c0.705-0.303,1.698-1.293,2.32-1.16c1.011,0.216,0.09,0.814-0.002,2.671c-0.049,1.006-0.051,2.116-0.756,2.62      s-2.418,1.059-0.503,1.361c1.915,0.302,2.72,1.259,5.341,0.251c2.62-1.008,3.011-1.186,4.082-2.217      c1.118-1.077,2.127-1.895,3.325-2.317c1.23-0.435,2.926-0.917,3.729,0.557c0.301,0.552,1.316,0.996,0.203,2.267      c-1.06,1.208-3.682,1.769-2.218,2.166c1.47,0.397,1.21,1.26,3.226,1.159s2.348-0.468,3.323-1.01      c1.136-0.631,1.767-0.302,3.682-2.418c1.914-2.117,3.377-3.074,5.039-3.78c1.982-0.843,2.771-0.854,3.678-0.049      c0.907,0.807,0.251,1.261,0.755,2.168c0.504,0.906,0.553,0.149,0.755,1.157c0.201,1.008,0.494,0.79,0.706,1.714      c0.225,0.983,0.302,1.209,1.964,0.252c1.939-1.116,3.226-1.865,4.133-2.57s1.763-0.96,2.67-1.815      c0.956-0.901,1.288-1.294,2.421,0.403c1.109,1.662,0.824,2.102,1.056,3.426c0.203,1.159,1.113,1.312,0.71,1.715      c-0.403,0.402-2.673,0.754-0.354,1.159c2.239,0.392,3.324-0.2,4.23-0.805c0.907-0.604,1.258-0.656,2.367-1.612      c1.186-1.021,2.32-3.125,2.926-4.133c0.604-1.008,0.605-2.066,1.915-1.663c1.311,0.403,0.802,0.68,0.856,2.218      c0.049,1.36,1.199,3.289-0.002,3.678c-1.714,0.555-1.654,1.743-0.753,1.967c1.16-0.001,1.411,0.05,2.016-0.051      c0.604-0.102,0.805,0.501,1.258-0.052c0.943-1.151,1.378-1.079,2.472-1.663c1.115-0.594,3.173-3.706,4.028-5.037      c0.922-1.434,2.929-6.236,2.772-10.183c-0.081-2.021-0.856-3.677-0.655-5.088c0.202-1.411-2.017-8.112-2.318-9.12      c-0.303-1.008-2.604-6.873-2.974-8.318c-0.729-2.85-3.979-8.21-4.786-9.419c-0.806-1.21-2.065-2.769-3.021-4.03      c-0.953-1.257-3.127-1.161-4.386-1.412c-1.377-0.274-2.165-1.006-3.879-0.805c-1.713,0.201-2.015,0.001-2.57,0.756      c-0.68,0.927-0.654,1.913-1.259,2.921s-0.575,1.209-1.008,2.117c-1.762-0.07-1.664-0.608-3.68-1.411      c-1.882-0.749-3.376-0.603-4.636,0.758c-1.235,1.333-1.461,2.215-2.116,2.82c-0.496,0.459-1.209,0.654-2.469-0.354      c-1.341-1.071-2.052-2.258-3.326-2.72c-1.109-0.402-1.764-1.16-2.872-2.974c-1.108-1.814-1.763-3.775-2.269-5.544      c-0.505-1.764-1.142-3.721-1.713-4.987c-0.641-1.42-1.108-3.579-1.813-5.091c-0.706-1.512-1.134-4.276-1.411-5.492      c-0.254-1.108-0.169-3.317-0.202-6.193c-0.021-1.883-0.141-6.202,0.051-8.567c0.183-2.277-0.119-4.604,0-5.745      c0.151-1.463,0.499-2.926-0.302-4.736c-0.557-1.258,1.035-5.582,2.165-7.058c1.159-1.513,3.126-3.979,3.882-5.643      c0.652-1.436,0.327-4.047,0.553-5.443c0.253-1.563-0.101-5.24-0.403-6.953c-0.302-1.713-0.755-9.019-1.461-11.236      c-0.623-1.958-2.066-9.269-2.519-11.284c-0.503-2.244-0.809-8.891-1.058-10.282c-0.253-1.411-0.167-5.663,0.401-7.609      c0.604-2.067,2.317-11.034,2.519-13.15c0.202-2.116,3.147-15.02,3.379-17.787c0.168-2.016,3.184-11.824,4.837-15.121      c0.95-1.895,4.423-9.139,6.148-11.94c1.864-3.024,2.266-4.886,3.172-5.642c1.075-0.897,3.346-3.159,5.245-6.203      c1.762-2.823,6.135-7.298,7.403-8.864c1.512-1.866,4.683-5.4,6.804-6.452c2.264-1.122,6.752-6.498,8.063-7.707      c1.31-1.21,11.286-9.825,13.906-11.338c2.759-1.594,11.102-8.097,12.598-9.523c2.169-2.067,3.025-3.981,3.528-5.947      c0.46-1.795,1.199-3.526,1.562-5.44c0.339-1.795,0.189-6.054,0.051-8.063c-0.147-2.149,0.509-10.216,0.807-13.404      c0.302-3.226,1.41-14.211,1.914-15.319s2.218-11.941,2.57-14.36c0.331-2.274,1.076-8.778,0.956-9.575      c-0.303-2.019-1.712-2.771-2.115-4.687c-0.377-1.785-4.987-11.739-5.694-13.654c-0.632-1.712-4.398-11.526-5.844-15.521      c-0.885-2.446-0.953-2.872-2.269-3.023c-0.904-0.505-2.721-1.411-3.225-1.311c-1.464,0.101-1.765,0.098-2.167-1.011      c-0.403-1.109-1.084-2.799-1.562-4.984c-0.396-1.813-0.909-4.533-0.404-6.049c1.559-0.418,1.411,0.001,3.326-0.705      c1.915-0.705,4.282-1.513,6.147-2.67c2.119-1.316,3.109-2.186,4.128-2.717c1.159-0.605,2.069-2.322,2.977-2.726      c0.444-0.197,0.859-0.46,1.329-0.779c0.601,0.278,1.313,0.584,2.208,0.933c4.143,1.614,10.507,3.932,15.253,6.828      c6.021,3.673,11.647,6.311,15.359,8.924c4.053,2.853,5.609,3.935,9.104,7.243c3.786,3.586,5.485,5.689,7.964,8.479      c3.109,3.502,5.726,6.093,7.77,8.7c1.163,1.483,2.907,3.46,3.215,4.252c0.382,0.984,0.465,1.451,0.894,1.528      c1.323,0.235,1.99-0.742,1.89-2.358c-0.102-1.616-1.651-2.896-3.927-6.167c-2.092-3.006-4.969-6.305-7.494-8.224      s-7.218-5.46-10.047-8.389c-2.828-2.93-8.177-5.859-11.267-8.077c-2.974-2.134-10.986-6.797-15.452-9.039      c-2.383-1.196-6.66-3.431-8.781-3.75c-1.871-0.281-3.781-0.876-5.438-1.734c0.177-0.12,0.297-0.208,0.497-0.339      c1.462-0.956,3.124-3.83,4.031-5.442c0.906-1.612,1.21-1.712,0.906-2.365c-0.538-1.156-0.555-2.822-0.655-3.427      c-0.021-0.123-0.114-0.287-0.237-0.466c2.699,0.776,6.246,1.728,8.817,2.557c4.15,1.338,10.806,3.15,14.24,4.362      s10.245,4.396,16.062,6.471c6.531,2.33,13.337,5.741,15.251,6.839c2.55,1.463,7.672,4.646,12.016,7.273      c4.344,2.626,8.277,6.196,9.792,7.51c1.516,1.313,5.742,5.871,7.877,7.662c2.919,2.449,3.078,3.428,3.376,2.801      c0.762-1.598,0.831-2.142,1.012-3.485c0.248-1.854-1.301-0.78-2.525-1.832c-1.031-0.886-4.85-4.271-6.769-6.09      c-1.92-1.818-5.548-4.143-8.882-6.466c-3.333-2.323-12.519-7.825-15.448-9.441c-2.93-1.617-15.09-6.804-17.965-8.046      c-3.203-1.383-17.932-6.287-23.352-7.487c-4.052-0.897-10.604-2.758-14.343-3.68c-0.36-0.429-0.685-0.834-0.685-1.052      c0-0.504,1.207-1.058,1.309-2.267c0.101-1.21-0.249-1.607-0.855-2.82c-0.654-1.312-0.653-1.513-1.964-3.023      c-0.271-0.313-0.538-0.541-0.798-0.733c0.18-0.038,0.381-0.057,0.656-0.021c1.515,0.202,9.601,0.156,14.949,0.708      c6.283,0.648,17.315,2.046,24.168,2.972c6.616,0.895,14.938,2.898,23.423,5.525c8.485,2.626,12.063,5.279,15.061,6.542      c2.001,0.843,3.578,1.801,4.887,2.781c0.973,0.729,2.194,2.171,4.35,3.78c1.692,1.263,2.346,1.626,3.197,1.323      c1.157-0.413,1.199-2.288,0.29-2.864c-0.878-0.557-1.367-0.411-2.341-1.372c-1.73-1.709-3.276-2.591-6.407-4.409      c-3.132-1.818-10.455-5.108-16.844-7.195c-5.846-1.909-11.475-3.108-17.966-4.17c-6.536-1.069-18.547-2.639-23.193-3.145      c-4.646-0.505-12.081-1.718-16.765-1.706c-2.788,0.007-6.973-0.352-10.172-0.581c-0.351-0.488-0.687-1.104-0.326-1.519      c0.656-0.756,2.217-2.568,2.721-3.476c0.504-0.906,1.764-2.318,2.167-2.923s-0.354-0.655-0.656-1.159      c-0.215-0.298,0.259-0.803-0.234-1.51c-0.604-1.411-1.377-0.908-1.377-2.318c0-1.411,0.05-2.27-0.656-2.976      c-0.771-0.771-1.748-0.934-1.089-1.364c2.62-1.713,5.825-4.078,7.841-5.69c1.34-1.072,6.601-5.239,7.306-7.053      c0.706-1.814,4.35-6.316,5.645-8.364c1.106-1.751,2.268-5.089,2.973-7.003c0.489-1.327,1.689-4.259,2.319-6.047      c0.503-1.43,0.372-3.75,0.755-5.797c0.313-1.683-0.094-1.598-2.921-2.117c-1.22-0.225-4.688-0.101-7.106,1.109      c-2.149,1.075-4.035,3.046-5.845,3.828c-0.913,0.395-3.379,0.708-4.085,1.414c-1.108,1.108-2.316,1.106-3.425,1.912      c-1.108,0.807-3.55,2.01-4.686,3.175c-1.23,1.263-3.604,1.206-5.997,2.419c-1.854,0.939-6.063,1.671-7.053,1.612      c0,0-3.428,0.2-4.738,0.2c-1.31,0-2.385-0.07-3.274-0.553c-1.271-0.69-3.477,0.151-3.477,0.151s-0.929,0.279-1.964-0.354      c-1.814-1.108-3.628-2.62-5.341-4.031c-0.231-0.19-0.452-0.323-0.886-0.688c0.924-2.01,2.104-4.322,3.132-5.839      c1.51-2.229,2.152-3.31,5.036-7.31c2.382-3.304,6.975-9.56,10.108-12.836c1.876-1.962,6.086-5.703,8.407-7.432      c2.954-2.2,10.416-7.563,14.153-9.786c3.737-2.222,8.925-6.078,16.347-8.063c6.012-1.608,12.101-2.416,12.979-2.252      c0.778,0.146,2.673,0.201,5.4,0.604c2.727,0.404,3.795,0.999,4.859,1.268c0.745,0.188,1.534-0.939,0.363-2.104      c-1.093-1.088-7.455-1.273-8.948-0.997c-2.158,0.398-3.767-0.239-7.487,0.219c-3.41,0.42-5.997,1.325-9.533,2.234      c-3.535,0.909-8.893,4.271-12.227,5.989c-3.333,1.717-8.972,6-11.503,7.665c-4.067,2.676-6.138,4.211-7.69,5.509      c-2.637,2.204-5.14,4.336-8.081,7.361c-3.114,3.203-4.979,6.234-7,9.063c-2.021,2.828-5.964,8.724-7.481,11.571      c-1.101,2.063-1.511,3.212-2.209,3.987c-0.885-0.631-2.002-1.308-3.391-1.896c1.121-1.844,2.608-4.014,4.133-7.086      c3.126-6.299,6.585-12.16,9.904-17.089c5.721-8.491,9.79-13.242,13.662-17.209c2.665-2.729,8.115-9.239,13.119-13.019      c4.708-3.557,8.21-6.965,13.596-10.043c6.354-3.631,13.078-6.145,14.593-6.447c1.516-0.303,1.258,0.654,2.242,0.403      c0.725-0.185,2.274-0.265,2.88-0.568c0.606-0.303,0.652-1.564,0.416-2.318c-0.411-1.311-1.354-0.019-3.786,0.334      c-3.281,0.476-5.573,1.794-7.141,2.435c-1.759,0.72-5.381,2.795-6.721,3.279c-1.279,0.463-3.814,2.037-5.216,2.814      c-1.654,0.917-5.159,3.932-9.502,7.164c-4.344,3.232-9.392,7.868-13.125,11.938c-3.894,4.243-6.811,7.563-9.336,10.393      c-2.525,2.828-6.135,9.579-7.374,11.426c-1.2,1.789-4.533,6.223-5.556,8.499c-0.854,1.899-4.487,8.502-5.194,9.513      c-0.513,0.733-1.975,3.137-2.977,5.061c-0.933-0.307-1.963-0.563-3.099-0.736c-2.583-0.394-5.491,0.909-8.011,2.018      c-0.782,0.345-4.315,1.92-5.24,2.367c-0.77,0.372-1.763-0.152-4.688-1.564c-1.993-0.961-7.653-2.102-11.741-1.509      c-0.607,0.088-1.192,0.194-1.762,0.311c-0.128-2.32-0.404-4.472-0.613-6.125c-0.547-4.341-1.557-10.581-2.609-13.602      c-0.729-2.092-1.317-6.736-2.453-10.404c-0.775-2.505-1.349-4.172-2.181-6.773c-1.405-4.394-1.577-5.561-3.388-9.153      c-1.063-2.106-2.296-3.727-3.703-6.203c-1.952-3.436-7.344-11.083-10.021-13.833c-3.489-3.581-7.313-7.745-9.093-8.989      c-2.73-1.908-3.805-2.327-5.151-3.637C2268.792,41.11,2267.287,40.986,2266.681,40.986z"/>
				<path id="Shading" fill="#222222" d="M2224.017,353.314c-0.037,1.563,0.015,3.13,0.216,4.682      c0.33,2.546,0.99,5.037,1.731,7.49c0.743,2.459,1.575,4.894,2.497,7.292c0.932,2.424,1.967,4.804,2.99,7.19      c1.009,2.351,1.996,4.712,2.93,7.093c1.069,2.727,2,5.508,2.791,8.327c2.718,9.688,4.737,21.039,3.048,31.079      c-0.816,4.854-3.163,9.207-5.895,13.237c-1.398,2.063-2.884,4.065-4.33,6.095c-1.085,1.522-4.693,8.344-6.317,12.204      c1.144-3.796,4.51-15.434,5.108-19.444c0.701-4.701,0.216-9.751-0.351-14.448c-1.154-9.573-5.237-18.373-10.377-26.436      c-8.287-12.999-18.515-26.123-18.825-41.771c-0.831-5.188-0.529-11.462,2.733-15.775c0.373-0.492,0.879-0.952,1.356-1.339      c0.854-0.693,1.897-1.174,3.013-1.165c0.977,0.008,1.856,0.438,2.717,0.855c1.368,0.666,2.723,1.345,4.141,1.901      c1.827,0.716,3.666,1.389,5.314,2.471c0.844,0.554,1.681,1.125,2.507,1.705c1.716,1.203,2.979,2.618,3.167,4.788      C2224.297,350.684,2224.049,351.984,2224.017,353.314z M2113.958,550.296c11.114,5.397,18.328-9.243,22.753-16.728      c7.455-12.606,13.494-25.658,25.987-34.036c12.282-8.236,26.523-12.573,41.204-13.605c11.243-0.79,23.465,0.82,34.396-2.395      c3.071-0.903,5.016-2.991,6.646-5.633c1.307-2.113,2.824-4.152,3.658-6.515c0.59-1.674,1.221-5.69-1.782-3.38l0.209-0.163      c-1.78,1.378-3.702,2.7-5.726,0.946c-2.453-2.127-1.153-5.136-0.823-7.836c0.179-1.465,0.313-2.934,0.481-4.399      c0.268-2.324,0.381-4.717,0.814-7.018c-0.382,2.028-2.284,3.282-3.671,4.626c-1.615,1.564-3.109,3.298-5.042,4.487      c-3.041,1.873-6.865,2.64-10.398,2.835c-1.341,0.074-2.789-0.517-3.904-1.219c-2.598-1.635-3.695-4.443-4.348-7.311      c-0.72-3.164-1.465-6.331-1.9-9.55c-0.382-2.825-0.169-5.919-0.736-8.659c-0.629,0.105-0.537,0.757-0.794,1.332      c-1.478,3.301-3.2,6.236-4.515,9.655c-1.047,2.723-2.449,5.653-4.488,7.834c-0.193,0.495-0.473,0.983-0.852,1.452      c-4.164,5.164-9.1,10.148-15.106,13.155c-3.272,1.638-6.698,3.092-10.272,3.935c-3.138,0.739-6,0.323-9.043,0.769      c-3.916,0.573-6.445-2.927-6.276-5.884c-0.168-0.642-0.264-1.353-0.269-2.148l0.012-0.15l-0.125,0.135      c-1.656,1.734-3.044,3.747-4.809,5.374c-0.844,0.615-1.738,1.16-2.684,1.612c-0.707,0.338-1.569,0.706-2.345,0.867      c-0.602,0.125-1.11,0.423-1.745,0.413c-0.41-0.006-0.716-0.24-0.984-0.536c-0.218-0.241-0.368-0.543-0.432-0.861      c-0.057-0.278-0.074-0.568-0.1-0.852c-0.031-0.361,0.182-1.513-0.531-1.404c-0.316,0.048-0.393,0.331-0.561,0.555      c-0.432,0.574-1.044,0.935-1.537,1.443c-0.282,0.292-0.545,0.604-0.835,0.889c-6.368,6.255-16.401,13.616-25.83,12.735      c-4.702-0.439-7.981-4.22-10.897-7.529c-1.299-1.475-3.088-3.963-4.018-5.626c-0.601,0.518-1.941,1.935-2.428,2.562      c-5.404,6.955-10.174,16.768-9.756,26.163c0.441,9.939,3.988,20.001,8.119,28.964      C2102.268,537.389,2105.752,546.31,2113.958,550.296z M2307.147,239.297c5.898-3.104,11.529-6.682,17.701-9.229      c11.529-4.759,23.813-15.937,25.694-18.086c-17.479,11.673-25.769,7.5-22.519,2c-9.5-4.375-22.25,6.5-20.521-2.423      c-12.928,5.101-15.982,5.973-27.22,2.259c-3.969-1.312-7.907-2.712-11.837-4.134c-2.846-1.029-6.739-3.14-9.896-2.663      c0.004,0.695-0.003,1.406-0.14,2.158c-0.353,1.936-0.859,2.765-1.008,4.133c-0.163,1.508-1.764,1.562-1.563,2.267      c0.202,0.706,1.328,1.538,0.707,1.663c-0.318,0.063-2.949,2.578-3.883,3.378c-1.767,1.513-2.82,2.869-4.231,4.333      c-0.816,0.846-1.499,2.638-2.419,4.586c-0.608,1.288-1.609,3.442-2.367,4.683c-1.109,1.815-2.473,4.019-3.326,6.15      c-1.379,3.44-1.249,7.183-2.016,10.079c-0.637,2.401-1.734,8.329-1.965,9.925c-0.318,2.217-2.016,5.392-2.52,6.804      c-0.274,0.765-2.369,2.517-3.528,3.021c-1.021,0.444-1.661,1.211-4.685-0.2c-3.023-1.41-5.313-3.301-7.508-4.737      c-2.789-1.824-4.29-2.973-5.744-3.175c-1.461-0.203-2.962,0.416-2.873,0.705c0.253,0.819,0.4,0.807-0.305,0.907      s-5.963-1.08-8.669-1.412c-6.49-0.798-10.236-1.727-11.786-2.216c-1.916-0.604-3.809-1.71-5.342-2.367      c-2.118-0.907-3.827-2.115-4.938-3.377c-0.628-0.713-1.059-0.855-1.411-1.41c-0.271-0.426-2.039,2.34-2.622,4.084      c-0.555,1.662-0.762,3.442-0.754,4.533c0.007,1.1,0.998,1.398,1.058,1.61c0.082,0.295-5.938,2.084-6.955,2.57      c-1.159,0.556-3.846,2.184-5.396,2.976c-2.638,1.348-5.578,3.16-8.059,4.634c-1.588,0.943-6.655,3.496-8.064,3.427      c-2.067-0.101-3.974-0.839-6.193-1.06c-2.016-0.2-4.538-0.704-4.941-1.107c-0.402-0.403-0.607-1.527-1.209-0.856      c-0.907,1.011-2.731,2.303-2.317,4.638c0.36,2.027,1.306,3.578,2.268,5.034c1.306,1.977,4.431,4.438,5.745,5.344      c0.177,0.122-2.979,2.998-4.385,4.183c-2.087,1.76-6.137,7-7.607,8.768c-2.398,2.882-7.707,7.856-9.219,9.219      c-1.184,1.067-4.194,3.453-6.302,3.682c-2.148,0.232-4.556-1.34-5.847-1.814c-0.539-0.198-0.303,1.058-0.856,1.26      c-0.67,0.243-1.459-0.202-1.31,1.006c0.374,3.024,2.716,8.002,5.041,9.174c2.015,1.016,4.028,1.965,5.391,1.863      c0.804-0.06,0.691,0.12-0.557,1.21c-2.25,1.965-5.629,6.181-7.609,9.073c-2.237,3.27-7.105,10.759-7.961,12.896      c-2.018,5.046-5.467,5.9-6.698,7.606c-1.056,1.464-3.682,2.831-4.234,3.427c-0.655,0.706-0.426,2.305-0.808,2.773      c-0.453,0.556-0.914,1.952,0.808,2.369c2.41,0.583,2.853,1.031,3.375,1.41c0.555,0.403,1.664,0.857,2.823,1.008      c1.02,0.133,2.822,0.301,3.427,0.402c0.604,0.101-0.203,0.655-0.606,1.613c-0.305,0.726-3.689,9.031-3.979,13.906      c-0.179,2.999-1.606,8.629-2.169,11.591c-0.479,2.528-1.642,9.42-2.115,12.245c-0.632,3.768-2.538,16.131-3.123,18.997      c-0.541,2.65-1.395,9.661-2.016,11.386c-0.923,2.559-1.151,10.571-0.958,11.645c0.1,0.553,0.956-0.927,0.856-0.052      c-0.147,1.276-1.014,5.878-1.512,8.364c-0.413,2.067-1.905,6.607-2.668,8.36c-0.782,1.797-2.878,6.352-2.976,7.359      c-0.151,1.563-1.26,4.484-1.764,5.694c-0.504,1.209-0.907,3.248-1.562,3.628c-0.966,0.562-0.775,1.052-1.159,2.067      c-0.706,1.866-2.287,3.882-3.073,6.349c-0.675,2.115-1.604,3.771-2.42,5.543c-0.71,1.542-2.509,3.04-2.772,3.932      c-0.149,0.506-0.794,0.842-1.661,0.906c-0.506,0.037-0.22,0.924,0.403,1.862c0.604,0.909,2.551,1.482,4.132,1.968      c1.617,0.496,2.837,0.171,3.527-0.002c1.009-0.253,1.672-0.228,2.116-0.302c0.908-0.152,0.586,0.647,0.505,1.411      c-0.103,0.958,0.151,1.908,0.855,3.729c0.579,1.496,0.391,2.767,0.252,5.039c-0.096,1.568-0.416,3.761-0.653,4.531      c-0.404,1.312-0.916,2.759-0.556,3.127c0.371,0.379,1.556-0.245,2.066-0.302c0.908-0.102-0.165,0.79-0.656,1.209      c-0.708,0.605-0.606,1.26,0.25,1.159c0.808-0.094,1.766-0.015,2.421-0.704c0.958-1.009,1.059-1.361,1.36-0.958      c0.303,0.403,0.744,1.815,0.958,2.518c0.354,1.159,0.532,2.511,1.108,4.587c0.479,1.728,0.154,3.934,0.251,4.937      c0.151,1.563,0.54,3.496,0.102,6.348c-0.313,2.035-0.582,5.099-0.756,5.846c-0.354,1.514-0.757,4.225-0.757,4.838      c0.001,0.907-0.514,1.835-0.855,2.521c-0.504,1.01-1.013,1.385-2.317,2.367c-0.742,0.559-1.533,0.933-2.319,1.412      c-0.974,0.596-1.968,1.741-2.568,2.266c-0.8,0.698-1.537,1.003-2.367,1.513c-0.943,0.579-2.016,0.818-3.377,0.656      c-0.679-0.081-1.891,0.335-2.52,0.002c-0.857-0.454-1.81-0.47-1.008,0.553c0.532,0.681,0.502,1.461,1.409,2.367      c0.907,0.907,1.664,1.412,1.865,1.916c0.202,0.504-0.348,0.614-1.008,1.158c-0.857,0.705-0.991,1.132-1.614,1.209      c-0.608,0.075-1.306,0.17-1.914,0.908c-0.706,0.856-1.66,3.477-1.459,4.484s-0.152,2.014-0.303,3.175      c-0.066,0.509,0.266,1.588,0.451,2.271c0.199,0.734-0.049,1.508-0.653,2.214c-0.604,0.705-1.45,1.429-1.612,2.115      c-0.202,0.857-1.107,1.261-1.511,1.159c-0.403-0.101-0.784,0.27-1.109,0.655c-0.461,0.545-0.533,1.046-1.563,1.614      c-1.463,0.807-1.893,0.317-1.713,1.309c0.265,1.462-0.212,2.644,0.387,3.063c2.35-0.388,3.168,0.043,7.72-4.46      c9.021-8.924,0.26-15.299,13.678-22.601c1.018-0.554,4.475-1.947,5.334-2.813c5.254-5.285,7.059-5.41,6.596-11.835      c-0.047-0.653-0.151-2.986-0.193-3.589c1.26-7.953-1.854-14.409-0.68-21.921c0.188-1.202,0.85-6.069,0.77-8.867      c-0.127-4.379-2.213-9.264-0.351-13.334c4.042-8.837-5.366-1.727-8.858-6.121c6.402-3.396,11.41-15.199,11.709-19.362      c0.662-9.234,6.944-23.161,13.977-29.189c15.08-12.925,7.186-31.474,10.627-46.443c1.016-4.417,2.768-11.092,4.517-15.273      c3.882-9.282,7.764-13.313,10.698-22.5c1.489-4.658-1.5-8.667-7.833-8.333c7-5.167,11.165-12.938,13.159-15.506      c3.703-4.774,7.789-10.654,7.969-18.035c7.918,8.14,11.02-2.104,14.039-7.375c6.191-10.811,4.994-11.388,13.5-22.75      c2.049-2.738,9.083-9.958,17-9.5c2.916,9.25,16.337-2.601,16.873,4.659c0.698,9.458,10.393,11.342,18.225,5.957      c3.162-2.174,5.857-4.772,9.605-3.979c4.939,1.046,16.292-0.317,14.446-7.104c8.75-1,11.91,8.483,16.96,6.291      c6.129-2.661,10.627-7.115,14.096-12.417c3.217-3.542-3.57-16.409,3.805-21.034c3.5,7.375,10.822-0.466,14.572-5.027      c3.752-4.561,8.533-8.372,13.631-11.303C2306.526,239.605,2306.84,239.458,2307.147,239.297z M2358.954,128.138      c0.249-0.032,0.468-0.063,0.665-0.091C2359.387,128.066,2359.165,128.099,2358.954,128.138z M2238.909,114.398      c-0.063,0.654-1.262,0.754-2.018,0.754c-0.831-0.001-0.326,1.904-0.399,3.176c-0.196,3.379,2.429,8.936,3.628,11.992      c0.94,2.399,6.801,10.833,9.021,13.202c1.74,1.858,8.309,8.612,10.934,10.328c5-1.399,4.265,12.583,5.199,0.95      c0.391-4.854-6.707-11.07-9.863-13.845c-2.387-2.099-3.158-3.605-5.137-6.099c-2.84-3.581-4.145-11.501-1.309-9.8      c5.636,3.382,20.403,10.621,22.121,11.117c3.662,1.059,9.311,3.567,13.309,0.697c5.713,4.48,14.527,2.836,16.806,0      c3.733-4.648,6.116-8.047,13.107-7.172c-2.75,5.75,11.946,10.24,24.503,2.438c-1.308,7.653,11.539-1.52,18.509-3.624      c-0.369,0.011-0.916-0.052-1.504-0.411c-1.814-1.108-3.628-2.62-5.341-4.031c-0.231-0.19-0.452-0.323-0.886-0.688      c0.005-0.011,0.011-0.022,0.016-0.033c-0.711-0.562-1.438-1.149-2.134-1.616c-0.202-0.13-0.419-0.26-0.642-0.389      c-0.054-0.03-0.109-0.068-0.162-0.096c-0.031-0.018-0.067-0.035-0.099-0.053c-1.19-0.603-2.249-1.06-3.21-1.402      c-0.911-0.295-1.912-0.544-3.016-0.713c-2.583-0.394-5.491,0.909-8.011,2.018c-0.782,0.345-4.315,1.92-5.24,2.367      c-0.77,0.372-1.763-0.152-4.688-1.564c-1.993-0.961-7.653-2.102-11.741-1.509c-0.607,0.088-1.192,0.194-1.762,0.311      c-0.001-0.005-0.001-0.011-0.001-0.016c-0.494,0.109-1.001,0.216-1.488,0.338c0,0.006,0.001,0.013,0.002,0.019      c-0.348,0.088-0.678,0.183-1.008,0.278c-0.227,0.078-0.418,0.134-0.572,0.169c-1.166,0.358-2.22,0.748-3.135,1.127      c-0.001-0.004-0.002-0.009-0.003-0.013c-0.228,0.117-0.496,0.243-0.831,0.38c-0.24,0.099-0.448,0.175-0.643,0.24      c0.007,0.013,0.014,0.028,0.02,0.041c-0.175,0.081-0.395,0.173-0.554,0.248c-2.671,1.274-5.696,3.122-7.209,4.132      c-3.1,2.069-2.757,2.92-3.827,2.318c-3.358-1.886-4.904-1.894-7.607-2.167c-1.608-0.153-3.25-0.019-5.643-0.151      c-3.272-0.183-8.111-1.763-11.287-3.224c-2.693-1.238-9.213-5.139-11.692-7.055c-3.402-2.63-5.619-3.898-7.607-4.939      c-1.142-0.597-2.229-0.959-3.377-1.008C2241.192,111.369,2239.04,113.041,2238.909,114.398z"/>
			</g>
			<g id="Eyes_Closed">
				<g>
					<radialGradient id="SVGID_1_" cx="2294.2766" cy="153.0315" r="6.9716" gradientUnits="userSpaceOnUse">
						<stop offset="0" style="stop-color:#CBA759"/>
						<stop offset="1" style="stop-color:#CB8A59"/>
					</radialGradient>
					<path fill="url(#SVGID_1_)" d="M2300.337,154.935c0.009-0.139,0.007-0.278,0.011-0.417c-2.298-1.048-4.25-2.107-5.519-2.863       c-2.488-1.482-4.244-2.337-5.989-4.62c0.12,0.702,0.661,1.336,1.206,2.499c0.469,1.001,1.46,2.55,3.089,3.911       c1.842,1.539,5.217,3.533,7.126,4.56C2300.264,156.953,2300.291,155.719,2300.337,154.935z"/>
					<radialGradient id="SVGID_2_" cx="2309.4495" cy="158.3035" r="7.1714" gradientUnits="userSpaceOnUse">
						<stop offset="0" style="stop-color:#CBA759"/>
						<stop offset="1" style="stop-color:#CB8A59"/>
					</radialGradient>
					<path fill="url(#SVGID_2_)" d="M2315.63,159.366c-1.993-0.495-4.514-1.336-6.16-1.69c-2.244-0.483-4.518-1.243-6.626-2.087       c-0.086,0.854-0.188,1.595-0.233,2.075c-0.045,0.468-0.077,0.876-0.104,1.261c2.326,0.588,6.066,0.872,8.646,0.909       c1.7,0.024,2.856,0.286,3.577,0.299c1.018,0.017,2.094,0.479,2.366,0.418C2317.392,160.483,2317.126,159.738,2315.63,159.366z"/>
				</g>
				<g>
					<radialGradient id="SVGID_3_" cx="2343.2747" cy="158.1682" r="6.8567" gradientUnits="userSpaceOnUse">
						<stop offset="0" style="stop-color:#CBA759"/>
						<stop offset="1" style="stop-color:#CB8A59"/>
					</radialGradient>
					<path fill="url(#SVGID_3_)" d="M2350.717,156.219c-1.271,0.362-2.773,0.759-4.617,1.221c-1.605,0.402-4.107,0.616-6.065,0.917       c-1.571,0.241-3.623,0.309-4.189,0.824c-1.628,1.483,0.811,0.421,2.149,0.385c1.472-0.041,1.724,0.087,3.785,0.142       c3.297,0.088,5.297-0.355,8.952-0.939C2350.728,157.966,2350.729,157.032,2350.717,156.219z"/>
					<radialGradient id="SVGID_4_" cx="2359.4866" cy="152.3865" r="7.7819" gradientUnits="userSpaceOnUse">
						<stop offset="0" style="stop-color:#CBA759"/>
						<stop offset="1" style="stop-color:#CB8A59"/>
					</radialGradient>
					<path fill="url(#SVGID_4_)" d="M2365.712,145.87c-0.475,1.223-0.946,1.982-1.371,2.523c-1.234,1.572-4.481,4.045-6.531,5.118       c-1.491,0.781-2.86,1.391-5.05,2.093c0.017,0.827,0.013,1.813,0.029,2.798c1.388-0.304,2.386-0.726,3.986-1.782       c4.09-2.7,5.476-2.9,7.654-6.299C2365.066,149.33,2366.046,147.695,2365.712,145.87z"/>
				</g>
			</g>
			<g id="Eyes">
				<radialGradient id="SVGID_5_" cx="2302.4299" cy="154.1619" r="13.2931" gradientUnits="userSpaceOnUse">
					<stop offset="0" style="stop-color:#CBA759"/>
					<stop offset="1" style="stop-color:#CB8A59"/>
				</radialGradient>
				<path fill="url(#SVGID_5_)" d="M2316.611,152.445c-1.17-1.359-4.406-2.203-5.953-2.758c-1.345-0.481-13.163-3.593-15.164-4.016      c-2.505-0.529-3.443-1.082-5.604-1.933c-2.2-0.865-2.937,0.142-2.868,0.539c0.12,0.702,0.306,2.508,0.345,3.792      c0.04,1.324,0.039,3.714,0.756,5.142c1.245,2.48,2.077,3.5,3.589,5.167c1.605,1.77,6.304,4.28,7.807,5.117      c1.689,0.94,7.577,1.755,10.746,1.302c3.22-0.462,4.137-1.943,6.747-3.536c0.637-0.388,0.851-1.849,0.829-3.671      C2317.821,155.854,2317.728,153.743,2316.611,152.445z M2302.611,157.663c-0.142,1.472-0.173,2.466-0.253,3.384      c-0.111,1.276-1.19,1.572-1.363,1.363c-0.538-0.646-0.657-1.868-0.707-2.828c-0.051-0.96-0.024-3.386,0.05-4.646      c0.075-1.265-0.062-2.532,0.102-3.839c0.147-1.18,0.492-2.836,1.161-2.93c1.027-0.144,1.116,1.716,1.313,3.485      C2303.16,153.858,2302.722,156.505,2302.611,157.663z"/>
				<radialGradient id="SVGID_6_" cx="2351.2502" cy="152.9363" r="13.5964" gradientUnits="userSpaceOnUse">
					<stop offset="0" style="stop-color:#CBA759"/>
					<stop offset="1" style="stop-color:#CB8A59"/>
				</radialGradient>
				<path fill="url(#SVGID_6_)" d="M2364.685,141.907c-1.428,0.38-3.93,1.118-5.928,2.285c-1.112,0.649-2.365,1.083-3.786,1.286      c-1.5,0.214-2.929,1.071-4.143,1.643c-0.723,0.34-3.429,1.857-5,2.5c-1.571,0.644-4.511,2.597-5.786,3.571      c-1.214,0.929-2.414,2.744-3.143,3.786c-2.018,2.885-1.446,2.816-0.571,4c0.488,0.66,1.274,0.975,2.571,1.5      c1.821,0.738,2.295,0.307,3.785,1c2.458,1.143,5.572,0.071,8.072,0.143s4.714-0.856,7.071-2c2.356-1.143,4.393-3.76,6-5.856      c0.844-1.102,1.803-3.679,2-4.715c0.285-1.5,1.143-3.998,1.143-5.5C2366.971,143.192,2365.914,141.58,2364.685,141.907z       M2351.828,162.05c-2.215,0.286-1-0.5-1.071-1.857c-0.053-0.998,0-3.714-0.072-5.071c-0.071-1.356-0.081-3.142-0.143-4      c-0.143-2-0.037-2.334,0.786-2.571c1.034-0.298,0.964-0.084,1.143,1.715c0.176,1.772,0.231,3.028,0.286,5.143      c0.031,1.216,0,2.857,0.071,4.285C2352.869,160.527,2352.823,161.922,2351.828,162.05z"/>
			</g>
			<g id="Strokes">
				<path fill="#3A3A3A" d="M2199.205,345.283c-2.454,7.05-0.956,19.127,2.746,26.89c10.088,21.153,20.307,31.74,23.404,45.977      c3.968,18.231,0.283,31.709-0.243,34.045c-0.542,2.404-1.961,7.628-1.406,5.984c0.692-2.054,8.693-22.248,4.659-40.781      c-3.157-14.51-14.231-25.396-24.273-46.453c-3.611-7.572-7.102-19.696-4.063-27.141      C2200.128,343.561,2200.219,342.372,2199.205,345.283z"/>
				<path fill="#333333" d="M2208.712,439.371c-2.012,4.677-4.728,9.603-8.542,14.821c-3.778,5.171-10.174,9.485-16.528,12.289      s-12.455,3.538-16.864,3.527c-1.265-0.004-3.329-0.443-4.692-1.592c-1.768-1.487-0.844-6.476-0.559-8.189      c-0.893,1.785-7.186,10.462-11.476,12.021c-1.06,0.386-1.721,0.374-2.092,0.211s-0.558-0.481-0.651-0.99      c-0.188-1.018-0.132-2.244,0.085-3.79c-0.82,1.121-5.079,5.551-9.342,8.787c-4.262,3.235-9.406,6.222-14.228,7.477      c-4.714,1.226-7.892,0.827-10.694-0.939c-2.802-1.767-5.331-5.102-6.913-6.904c-0.364-0.416-4.58-5.756-3.196-3.765      c3.076,4.426,6.68,10.428,9.67,12.313c2.992,1.885,6.48,2.295,11.322,1.035c4.986-1.297,10.204-5.3,14.523-8.58      c3.646-2.768,5.968-5.046,7.995-7.163c-0.141,0.771-0.146,0.932-0.009,1.675c0.122,0.661,0.535,2.311,1.191,2.599      s1.523,0.232,2.686-0.19c3.638-1.322,6.871-4.322,9.715-9.104c-0.375,1.893-0.482,3.647-0.082,4.794      c0.332,0.952,1.003,2.424,1.983,2.941c0.98,0.519,2.001,0.806,3.677,0.982c4.766,0.503,11.479-0.342,17.934-3.189      c6.456-2.849,12.75-7.214,16.648-12.549c3.864-5.287,7.145-13.494,9.173-18.212c1.012-2.353,1.378-2.591,1.935-4.217      c-0.303,4.196-0.04,7.958,0.652,12.021c0.886,5.198,2.478,9.727,4.696,12.195c1.638,1.821,3.584,3.019,6.096,3.162      c2.512,0.145,5.548-0.739,9.448-2.93c4.804-2.697,6.845-4.882,9.125-9c-0.955,3.504-1.111,4.776-1.621,7.929      c-0.375,2.312-0.574,4.405-0.58,6.128c-0.006,1.724,0.094,3.541,0.559,4.426c0.453,0.862,1.172,1.335,1.965,1.451      c0.793,0.117,1.768,0.027,2.637-0.287c1.502-0.544,3.344-2.016,4.6-2.855c-0.275,2.407-1.892,5.59-3.673,9.433      c-1.316,2.842-2.646,4.866-3.669,6.492c-1.022,1.627-1.769,2.865-1.797,4.18c-0.017,0.752,0.355,1.396,0.92,1.83      s1.313,0.688,2.137,0.776c1.536,0.166,3.378,0.059,4.769-1.104c0.141,0.063,0.228,0.195,0.192,0.383      c-0.13,0.704-0.191,0.921-0.516,1.781c-0.643,1.706-1.674,3.688-2.963,5.854s-3.118,4.19-4.521,5.786      c-0.701,0.798-1.365,1.398-1.891,1.939c-0.495,0.51-1.157,1.143-1.422,1.483c1.187-0.089,2.082,0.328,2.41,0.619      c0.163,0.146,0.565,0.848,0.369,1.292c-0.784,1.775-6.232,6.411-9.279,9.4c-6.096,5.979-14.383,12.828-18.898,16.58      c-4.358,3.621-9.445,12.809-9.463,13.416c1.981-1,6.045-2.727,7.12-2.687c-0.504,1.23-1.532,3.364-2.705,5.33      c-1.299,2.176-2.2,3.51-2.736,4.546c1.107-0.286,1.995-0.514,3.379-0.562c0.692-0.023,1.278,0.102,1.481,0.283      c0.102,0.091,0.147,0.173,0.144,0.369c-0.004,0.195-0.089,0.507-0.321,0.926c-0.464,0.835-1.728,2.438-3.332,4.305      c-1.604,1.866-3.648,3.94-5.451,6.06c-3.557,4.182-5.131,6.182-6.13,7.381c-0.347,0.416-0.985,1.28-0.614,0.887      c0.184-0.194,4.745-3.501,8.537-7.59c1.896-2.045,3.854-4.204,5.47-6.083c1.615-1.88,2.963-3.774,3.509-4.758      c0.272-0.489,0.415-0.91,0.422-1.3c0.008-0.39-0.152-0.747-0.41-0.979c-0.517-0.462-2.559-0.327-3.332-0.301      c-1.112,0.038-0.708,0.007-1.357,0.092c0.335-0.527,0.882-1.381,1.944-3.16c1.306-2.188,2.611-5.506,3.183-6.756      c-0.607-0.179-2.598-0.062-3.861,0.637c1.811-3.806,4.921-7.706,8.968-11.104c4.047-3.399,12.813-10.007,18.956-16.032      c3.072-3.013,6.893-7.382,7.791-9.417c0.225-0.509,0.357-0.979,0.352-1.424c-0.004-0.444-0.342-1.045-0.676-1.341      c-0.34-0.303-0.717-0.452-1.311-0.519c0.607-0.585-0.305,0.011,0.436-0.832c1.346-1.534,3.566-4.246,4.938-6.417      c1.388-2.199,2.457-4.396,3.104-6.042c0.273-0.695,0.565-1.885,0.523-2.665c-0.019-0.344-0.318-2.008-0.712-2.169      c-1.483,1.064-2.405,1.792-3.99,2.039c-0.704,0.109-1.92,0.132-2.329-0.183s-0.363-0.909-0.219-1.531      c0.228-0.983,0.669-2.175,1.684-3.789c1.016-1.614,2.124-3.756,3.466-6.651c1.895-4.086,3.641-7.703,3.819-11.56      c-1.464,0.75-5.06,3.039-6.669,3.622c-0.805,0.292-1.649,0.364-2.228,0.279c-0.579-0.086-1.195-0.604-1.551-1.281      c-0.337-0.644-0.543-1.917-0.537-3.58c0.005-1.663,0.201-3.722,0.57-6.003c0.738-4.563,2.12-9.395,2.196-11.566      c-0.985,1.894-4.642,8.086-11.063,11.692c-3.826,2.148-6.511,2.46-8.797,2.328c-2.287-0.131-4.002-1.179-5.547-2.898      c-2.017-2.242-3.846-6.179-4.718-11.293c-0.871-5.115-0.816-14.388-0.614-16.155      C2211.684,431.97,2210.724,434.694,2208.712,439.371z"/>
				<path fill="#575757" d="M2256.275,566.724c-1.898,0.066-3.969,0.702-6.237,2.146c-1.142,0.727-1.521,1.042-2.2,1.863      c0.143,1.143,0.845,1.591,1.166,2.183c0.642,1.184,1.102,2.349,0.712,5.27c-0.1,0.752-0.191,1.304-0.284,1.671      c-0.083,0.332-0.17,0.446-0.177,0.464l-0.053-0.026c-0.145-0.093-0.385-0.31-0.686-0.601c-1.204-1.163-3.468-3.479-7.801-4.717      c-4.306-1.23-7.104-0.842-9.673,0.38c-2.568,1.221-4.904,3.214-8.507,5.215c-3.541,1.968-6.659,1.845-9.816,0.93      c-3.158-0.915-6.324-2.653-9.799-3.879c-6.925-2.444-11.275-2.239-15.849-2.163c-7.07,0.118-12.428,0.487-18.544,3.342      c-6.081,2.838-10.219,5.141-12.979,8.194c-0.381,0.396,1.916,2.576,2.273,2.159c2.652-2.935,5.432-5.554,11.472-8.372      c6.006-2.804,11.044-3.504,18.067-3.621c4.589-0.076,8.757-0.287,15.57,2.117c3.394,1.198,6.563,2.942,9.841,3.893      s6.696,1.076,10.428-0.997c3.671-2.039,6.031-4.038,8.461-5.193c2.431-1.155,4.934-1.527,9.112-0.333      c4.152,1.187,6.067,3.044,7.293,4.229c0.306,0.296,0.706,0.735,1.401,1.03c0.646-0.386,0.847-0.82,0.954-1.248      c0.107-0.427,0.341-1.354,0.371-2.297c0.103-3.166-0.979-4.984-1.766-5.97c-0.443-0.555-0.748-0.955-0.891-1.563      c0.393-0.464,1.106-1.025,2.401-1.498c4.845-1.771,7.583-2.205,10.58-0.627c1.229,1.009,3.314,1.716,3.711,1.886      c-0.824,0.183-1.34,0.333-2.079,0.726c-0.316,0.169-0.858,0.525-1.02,0.814c-0.161,0.29-0.186,0.372-0.178,0.725      c0.016,0.705,0.261,1.527,0.604,2.428c0.688,1.802,1.798,3.902,2.489,5.511c1.152,2.682,2.294,5.359,3.045,7.7      s1.159,4.494,0.954,5.754c-0.222,1.358-0.569,2.857-1.428,4.171c-1.028,1.571-1.258,1.815-2.964,3.264      c-0.754,0.641-2.438,1.635-1.961,1.395c2.211-1.114,3.646-2.173,4.671-3.534s1.931-2.784,2.417-5.047      c0.362-1.684-0.158-3.85-0.927-6.245c-0.769-2.396-1.919-5.089-3.071-7.772c-0.715-1.66-1.82-3.756-2.479-5.48      c-0.329-0.863-0.421-1.478-0.552-1.984c-0.132-0.515,0.051-0.911,0.329-1.074c1.22-0.715,2.059-1.058,3.4-1.147      c1.221-0.081,1.54-0.153,3.114-0.012c1.573,0.141,4.425,1.302,5.843,3.077c1.363,1.707,3.839,5.259,5.514,9.264      c1.262,3.017,1.525,5.623,1.748,8.808c0.14,1.992-0.243,5.345,0.226,2.447c0.536-3.315-0.471-9.275-1.817-12.497      c-1.701-4.068-3.883-7.919-5.951-9.455c-2.012-1.493-3.641-2.233-5.391-2.391c-1.21-0.108-1.637-0.081-3.229,0.116      c-2.27-0.672-3.533-1.565-4.646-2.151C2259.904,567.16,2258.174,566.657,2256.275,566.724z"/>
				<path fill="#575757" d="M2284.258,563.189c-1.788-0.131-3.474,0.391-5.004,1.263c-2.039,1.164-3.967,2.844-5.313,4.73      c-1.776,2.49,0.191-0.063,1.61-1.415c1.01-0.962,1.912-1.557,3.973-2.695c1.923-1.064,4.079-1.03,6.306-0.308      c7.631,2.477,10.326,10.04,11.358,14.787c0.997,4.593,0.146,8.383-0.588,12.037c-0.104,0.522-1.065,3.674-0.671,2.494      c1.239-3.697,3.154-10.438,2.041-15.257c-1.119-4.847-3.867-12.672-11.894-15.277      C2285.46,563.349,2284.854,563.233,2284.258,563.189z"/>
				<path fill="#575757" d="M2309.762,565.952c2.728,0.69,3.535,1.254,4.828,2.474c2.952,2.784,3.982,4.575,5.214,7.156      c1.173,2.456,2.682,7.898,2.61,13.631c-0.042,3.334-0.662,6.849-1.111,8.631c-0.13,0.518-0.482,1.492-0.244,1.015      c0.864-1.729,2.545-6.342,2.59-9.863c0.073-5.893-1.513-11.413-2.814-13.984c-1.412-2.79-3.118-4.921-4.8-6.49      C2314.354,566.95,2311.682,566.043,2309.762,565.952z"/>
				<path fill="#4B4B4B" d="M2313.788,347.372c-0.442,0-1.268,0.084-1.847,0.21c-12.846,2.797-19.465,11.052-23.241,17.485      c-4.915,8.374-9.574,19.661-12.795,28.828c-2.155,6.133-3.01,13.397-3.434,19.738c-0.424,6.34-0.424,11.795-0.813,14.123      c-0.188,1.136-0.574,1.605-1.056,1.872s-1.135,0.314-1.843,0.364c-0.708,0.049-1.479,0.1-2.134,0.558      c-0.654,0.457-1.094,1.301-1.2,2.681c-0.396,5.144-3.455,16.518-3.132,31.466c0.365,16.899,1.098,27.683,5.438,37.326      c0.109,0.219,0.385,0.311,0.73,0.311c1.077,0,2.85-0.888,2.507-1.57c-4.735-10.436-5.977-19.25-6.341-36.099      c-0.32-14.832,2.074-25.749,2.486-31.111c0.097-1.246,0.437-1.79,0.861-2.088c0.425-0.297,1.135-0.444,1.832-0.493      c0.698-0.048,1.552,0.053,2.251-0.334c0.699-0.388,1.673-1.102,1.888-2.391c0.42-2.521,0.399-7.893,0.821-14.201      c0.422-6.31,1.278-13.518,3.39-19.525c3.209-9.134,7.356-20.296,12.225-28.588c3.714-6.327,10.694-15.735,22.712-18.216      C2314.295,347.469,2314.264,347.372,2313.788,347.372"/>
				<path fill="#575757" d="M2307.53,403.847c-4.382,12.066-8.473,30.445-10.172,37.967c-1.404,6.209-2.074,10.61-0.249,20.24      c1.995,10.534,4.832,20.459,4.438,26.262c-0.243,3.588-1.683,6.074-2.864,8.52c-1.182,2.444-2.543,4.846-3.411,8.176      c-3.042,11.675-0.273,20.129,0.088,28.302c0.188,4.284,2.65,10.45,5.229,16.05c2.579,5.601,5.657,10.595,8.185,12.535      c5.855,4.493,11.659,4.748,16.915,2.811c1.271-0.469,2.519-0.102,3.557,0.479c1.039,0.581,1.638,1.759,2.459,3.049      c1.642,2.58,2.597,5.874,2.993,8.649c0.804,5.624,1.48,10.004,0.938,15.346c-0.054,0.531-0.106,1.698,0.004,1.176      c1.124-5.314,1.323-11.169,0.51-16.858c-0.411-2.882-1.521-6.527-3.254-9.251c-0.867-1.362-1.893-2.499-3.099-3.174      s-2.839-0.281-4.313,0.262c-5.043,1.86-9.446,1.121-15.175-3.274c-2.238-1.718-5.464-7.122-8.016-12.663      s-4.549-11.69-4.729-15.752c-0.367-8.326-3.102-16.596-0.113-28.063c0.84-3.224,2.16-5.556,3.357-8.031      c1.197-2.477,2.832-4.955,3.084-8.668c0.415-6.117-2.749-16.837-4.735-27.324c-1.813-9.563-1.584-12.64-0.188-18.82      c1.715-7.591,4.974-25.577,8.6-37.768C2307.781,403.313,2307.692,403.4,2307.53,403.847z"/>
				<path fill="#636363" d="M2338.638,557.336c-0.699-0.25-1.682-0.112-2.666,1.119c-3.053,3.817-7.547,5.536-6.342,5.264      c2.322-0.526,4.838-2.571,6.813-4.618c0.573-0.595,1.242-0.725,1.842-0.62c0.601,0.104,1.321,0.58,2.199,1.75      c3.534,4.713,6.451,13.651,8.231,19.218c1.761,5.507,2.917,13.043,2.174,17.723c-0.62,3.907-2.24,5.97-3.396,6.998      c0.186-0.332-0.326-4.201-0.657-5.123c-0.358-0.973-0.852-2.176-1.935-3.031c-1.084-0.855-2.229-1.237-4.726-0.82      c-1.395,0.232-2.615,0.997-2.987,1.71c-0.577,1.105-0.962,1.983-1.144,2.938c-0.181,0.953-0.269,1.868-0.491,2.689      c-0.18,0.661-0.543,0.953-0.743,1.194c-0.35-1.055-0.911-2.715-1.805-3.822c-1.222-1.513-2.869-2.813-4.745-2.906      c-2.149-0.105-3.889,0.81-5.208,2.168c-0.953,0.98-1.68,2.452-2.266,3.703c-0.325-1.649-1.38-3.257-2.564-4.107      c-1.544-1.108-2.783-1.001-3.948-0.969c-2.146,0.061-4.806,1.456-6.265,2.78c-1.255,1.139-1.963,1.793-3.259,3.137      c-0.016-1.49-0.494-3.354-1.478-4.424c-1.204-1.309-3.087-2.461-5.39-2.67c-2.353-0.214-4.181,0.809-5.754,2.146      c-1.298,1.102-2.74,2.669-3.59,3.793c0.184-1.165,0.322-2.528,0.3-3.862c-0.023-1.424-0.438-2.42-1.306-2.63      c-0.799-0.193-1.933-0.021-3.116,0.68c-1.312,0.777-1.874,1.653-2.431,2.234c-0.558,0.581-1.075,0.942-2.619,0.942      c-0.719,0-1.184-0.221-1.622-0.596c-0.438-0.374-0.803-0.942-1.282-1.526c-1.084-1.318-1.542-2.082-3.433-2.431      c-0.813-0.15-2.289,0.011-1.765,0.105c2.88,0.521,3.668,1.614,4.557,2.804c0.444,0.595,0.856,1.189,1.403,1.656      c0.546,0.467,1.244,0.787,2.142,0.787c1.689,0,2.557-0.52,3.197-1.188c0.64-0.667,1.195-1.692,2.368-2.387      c1.067-0.633,2.083-0.655,2.473-0.447c0.389,0.208,0.738,0.834,0.794,2.02c0.082,1.736-0.089,4.354-0.839,6.104      c1.036-1.285,3.432-3.965,4.928-5.236c1.497-1.271,3.468-2.076,5.559-1.887c2.143,0.195,3.789,0.99,4.836,2.129      c1.047,1.138,1.553,2.209,1.683,4.756c0.392-0.472,2.562-2.69,3.942-3.943c1.38-1.253,3.854-2.166,5.74-2.332      c1.396-0.123,2.5,0.002,3.887,0.997c1.386,0.996,2.686,4.23,2.578,5.624c0.464-1.25,1.911-3.967,3.114-5.205      s2.686-2.019,4.592-1.925c1.521,0.075,3.025,1.198,4.164,2.609c1.139,1.41,2.143,3.968,2.21,4.763      c0.71-0.704,1.318-1.477,1.392-2.867c0.048-0.902,0.106-1.635,0.275-2.525c0.17-0.891,0.706-1.939,1.087-2.621      c0.395-0.707,1.252-1.358,2.495-1.566c2.353-0.392,3.585,0.08,4.473,0.78c0.887,0.7,1.545,1.812,1.892,2.759      c0.652,1.777,0.569,3.639,0.661,4.568c0.072,0.733,0.006,1.838-0.246,2.52c0.649-0.201,4.09-3.572,4.734-9.215      c0.597-5.231-0.048-12.234-1.788-17.756c-2.216-7.033-4.858-13.975-8.124-19.281      C2340.494,558.421,2339.523,557.651,2338.638,557.336z"/>
				<path fill="#464646" d="M2365.316,203.565c1.457-0.994,2.891-1.963,5.791-2.833c3.663-1.22,4.681-1.688,7.136-3.344      c2.157-1.454,6.813-5.531,8.021-7.834c-2.115,2.52-5.473,4.662-7.407,6.261c-1.936,1.601-4.696,2.885-8.195,3.935      c-3.096,0.929-5.629,1.817-7.158,3.301C2362.98,203.558,2364.765,203.94,2365.316,203.565z"/>
				<path fill="#575757" d="M2295.981,570.384c4.724,0.869,7.221,2.757,9.411,5.127c2.013,2.177,4.542,7.02,4.38,12.617      c-0.091,3.123-1.279,6.009-1.966,8.588c-0.202,0.763-0.665,1.799-0.427,1.322c1.23-2.462,3.31-7.019,3.406-10.352      c0.17-5.826-2.096-10.905-4.473-13.276c-1.88-1.874-4.074-3.147-6.193-3.583      C2297.439,570.276,2295.504,570.298,2295.981,570.384z"/>
				<path fill="#3A3A3A" d="M2381.064,250.707c-2.318-4.734-5.731-13.852-7.038-17.985c-1.155-3.656-1.325-4.979-3.169-6.823      c-1.727-1.727-2.771-1.604-5.208-2.261c-1.787-0.481-0.182,1.772,1.042,2.177c2.27,0.751,2.669,1.448,3.083,2.135      c1.095,1.818,1.146,2.318,2.362,5.849c1.473,4.273,4.557,12.922,6.888,17.683c2.348,4.794,2.952,14.407,2.135,19.021      c-1.966,11.093-4.965,25.404-4.552,32.015c0.399,6.385-0.295,11.92-1.583,18.089c-0.624,2.99-3.091,4.181-5.599,6.894      c-2.509,2.713-4.738,4.64-8.229,7.262c-8.721,6.55-17.36,14.407-23.048,21.844c7-7,16.527-14.531,25.169-20.972      c3.271-2.438,5.677-4.68,8.616-7.616c2.668-2.666,5.194-3.92,5.789-7.861c0.931-6.169,1.87-12.749,1.461-19.296      c-0.395-6.319,2.473-19.513,4.439-30.615C2384.486,265.384,2383.548,255.78,2381.064,250.707z"/>
				<path fill="#50504F" d="M2241.733,114.609c-0.43,0.095-0.813,0.372-1.052,0.786s-0.355,0.948-0.383,1.627      c-0.138,3.496,0.806,8.176,3.585,14.133c0.217,0.506,1.692,0.519,1.433,0.034c-3.104-5.792-3.548-9.588-3.417-12.896      c0.023-0.599,0.135-1.011,0.278-1.259c0.144-0.249,0.296-0.353,0.529-0.403c0.467-0.103,1.232,0.103,2.277,0.682      c2.09,1.16,4.86,3.144,7.484,4.998c3.863,2.731,10.877,7.251,19.435,9.353c3.411,0.838,5.485,1.509,7.44,1.734      c1.954,0.225,3.884,0.535,7.294,1.738c3.461,1.222,5.998,1.995,7.51,1.653c1.511-0.342,2.179-1.448,3.252-2.621      c5.066-5.537,10.794-9.841,18.25-8.813c2.262,0.312,4.033,1.024,5.937,1.576c1.902,0.552,3.907,0.755,6.599,0.341      c5.31-0.816,6.924-2.273,8.929-3.86c0.419-0.331,0.351-0.531-0.068-0.199c-2.032,1.608-3.819,2.827-9.016,3.627      c-2.562,0.394-4.4-0.313-6.252-0.85c-1.852-0.537-3.681-1.275-6.049-1.602c-7.732-1.066-14.302,2.181-19.49,7.852      c-1.081,1.181-1.793,1.995-3.042,2.278c-1.25,0.282-3.155,0.03-6.563-1.172c-3.46-1.221-5.489-1.553-7.469-1.78      c-1.98-0.228-3.898-0.354-7.258-1.18c-8.384-2.059-15.833-6.901-19.664-9.61c-2.587-1.829-5.358-4.125-7.572-5.354      C2243.563,114.809,2242.592,114.421,2241.733,114.609z"/>
				<path fill="#464646" d="M2405.816,116.356c-0.205,0.011-0.369,0.176-0.378,0.381c-0.201,3.334-1.383,6.374-2.709,9.6      c-1.33,3.234-2.809,6.655-5.683,10.463c-5.388,7.141-8.023,9.945-12.835,14.181c5.703-3.576,8.962-6.389,14.5-13.125      c1.91-2.323,4.006-6.491,5.875-11c1.367-3.301,2.855-6.752,2.854-9.958C2407.494,116.408,2406.057,116.343,2405.816,116.356z"/>
				<path fill="#464646" d="M2270.712,186.911c-3.914,1.599-8.606,3.277-13.813,4.078c-0.681,0.396-2.092,1.562-0.949,1.184      c5.3-0.815,11.124-2.912,15.063-4.521c3.939-1.609,7.093-3.121,9.064-3.554c0.496-0.093,0.543-0.4-0.828-0.139      C2277.88,184.222,2274.626,185.313,2270.712,186.911z"/>
				<path fill="#464646" d="M2258.863,173.51c-0.5,0.03,0.119,0.512,0.618,0.546c4.614,0.254,6.462,0.152,8.999,0.127      c2.538-0.025,5.142,0.274,8.496,1.025c0.541,0.15,0.93-0.432,0.377-0.527c-3.413-0.764-5.913-1.121-8.477-1.096      s-5.396,0.177-9.974-0.075h-0.255H2258.863z"/>
				<path fill="#464646" d="M2264.271,165.995c5.608,0.4,9.524,1.625,13.038,3.13c0.491,0.211,0.414-0.1,0.316-0.382      c-3.558-1.524-9.071-3.109-12.195-3.303C2262.306,165.246,2263.77,165.954,2264.271,165.995z"/>
				<path fill="#50504F" d="M2178.925,265.506c0.288,0.95-0.203,1.771-0.831,2.234c-0.58,0.429-1.632,0.588-3.469,0.973      c-5.377,1.127-9.068,4.38-12.49,7.351s-7.301,5.714-12.679,5.62c-5.546-0.097-7.765,0.03-9.836-0.112      c2,0.571,3.332,1.651,4.603,2.964c0.636,0.656,1.035,1.373,1.085,2.126s-0.232,1.585-1.108,2.528      c-3.67,3.953-9.199,8.131-14.8,15.874c-3.108,3.728-6.354,7.252-9.767,9.634c-3.414,2.383-8.473,3.073-12.261,2.518      c1.011,2.424,4.17,4.628,6.22,5.708c1.872,0.986,3.732,1.489,5.167,1.579c-0.224,3.192-1.637,5.81-3.614,8.313      c-2.05,2.596-4.677,5.061-7.031,7.893c-6.54,7.87-9.735,17.058-15.372,21.389c1.214,1.571,2.317,1.759,3.196,2.008      c0.878,0.249,1.82,0.025,2.682-0.047c0.862-0.072,1.489-0.137,2.186-0.062c0.695,0.075,0.936,0.661,1.391,1.266      c0.333,0.443,1.46-0.29,1.113-0.723c-0.616-0.77-1.426-1.105-2.258-1.195s-1.695,0.024-2.534,0.096      c-0.839,0.07-1.626-0.017-2.36-0.104c-0.595-0.072-1.157-0.177-1.716-0.894c6.222-5.516,8.368-13.592,14.688-21.183      c2.314-2.78,4.941-5.244,7.045-7.906c2.102-2.662,3.684-5.546,3.832-9.118c0.01-0.228-0.172-0.417-0.398-0.418      c-1.248,0-3.692-0.573-5.643-1.6c-1.701-0.896-2.909-2.033-4.329-3.553c3.05,0.782,8.338-0.442,11.443-2.766      c3.448-2.58,6.95-6.03,11.292-11.748c4.341-5.719,9.245-10.08,12.999-14.124c0.981-1.057,1.387-2.127,1.32-3.126      c-0.065-0.999-0.586-1.885-1.308-2.63c-0.808-0.835-2.451-1.761-3.535-2.272c2.113,0.109,4.279,0.391,8.572,0.465      c5.643,0.099,9.266-2.672,12.711-5.664c3.447-2.991,7.604-5.77,12.734-6.845c1.912-0.4,3.076-0.924,3.766-1.62      s1.039-1.805,0.809-2.601c-0.355-1.229-1.691-3.255-1.725-4.617c11.278,7.82,19.871,5.489,26.336,7.703      c4.557,1.56,6.065,1.014,7.973,1.081s3.529,0.15,4.878,1.518c0.55,0.558,1.52-0.41,1.112-0.693      c-2.207-1.533-3.509-1.815-5.506-1.887c-1.998-0.07-3.703,0.205-8.171-1.324c-3.485-1.193-9.806-0.842-15.274-2.421      c-5.466-1.579-10.39-4.891-12.202-6.129C2177.433,261.569,2178.546,264.252,2178.925,265.506z"/>
				<path fill="#50504F" d="M2082.821,548.463c-0.184,3.076-0.649,6.085-1.564,8.543c-0.915,2.457-2.268,4.345-4.216,5.285      c-4.203,2.029-8.3,5.44-11.358,8.678c-3.247,3.437-2.92,7.667-3.417,10.64c-0.452,2.7-2.863,5.346-4.782,8.072      c1.97-0.707,5.042-1.725,6.389-1.872c0.987-0.107,2.855-0.335,3.898-0.8c-2.099,3.268-4.03,7.378-4.996,12.169      c-0.475,2.352-0.637,6.257-0.689,9.603s0.01,6.119,0.01,6.119l0.027,1.271l0.705-1.057c2.718-4.076,4.074-5.723,6.68-7.097      c-1.963,6.885-3.137,15.493-3.857,20.882c-0.791,5.923-1.402,13.109-1.125,18.583c0.371,7.313,1.863,19.809,0.791,25.666      c2.357-0.965,4.893-1.573,7.375-2.583c-0.395,4.201-0.949,9.464-1.193,12.786c-0.139,1.859-0.09,4.313-0.131,6.81      c-0.039,2.496,0.281,5.991,0.924,7.135c0.893-1.5,5.617-6.472,8.359-7.98c1.09,2.524,2.348,6.504,2.883,14.63      c0.492,7.518,4.115,16.123,4.73,16.728c0.285-1.715,3.151-9.79,5.785-12.1c1.74,6.277,4.46,13.96,6.359,18.752      c2.822,7.122,6.872,16.766,12.378,22.139l0.717,0.699l-0.037-1c-0.091-2.443,0.626-4.668,1.217-5.694      c5.509,3.123,14.058,7.046,18.854,9.499c5.402,2.762,10.351,6.66,13.462,8.923c1.561,1.135,3.516,2.677,5.226,4.257      c1.71,1.579,3.623,3.648,3.962,4.935c0.34-1.35,0.935-2.629,1.152-4.537c2.934,2.706,5.48,3.885,9.881,5.866      c4.73,2.13,13.727,5.568,18.766,6.738c2.766,0.643,6.208,1.299,9.066,1.669c1.43,0.185,2.771,0.284,3.876,0.304      c1.105,0.021,2.242-0.239,2.885-0.757c-1.214-0.661-4.571-3.354-5.184-6.714c12.126,1.465,23.788,1.463,33.926-0.961      c4.517-1.08,9.37-2.781,13.375-4.222c4.006-1.441,6.382-2.677,8.604-3.838c-1.162-0.556-5.193-2.654-6.811-4.658      c4.851-2.794,9.839-6.599,12.357-8.674c4.52-3.727,10.078-12.951,12.199-17.244c-2.374,1.01-5.02,1.801-7.207,2.081      c1.675-2.354,4.369-5.694,5.912-8.986c0.689-1.473,2.291-5.005,2.604-7.042c0.567-3.693-0.411-9.586,2.423-16.648      c0.133-0.33,0.187-0.644,0.106-0.938s-0.299-0.518-0.544-0.654c-0.489-0.273-1.117-0.338-1.862-0.425      c-1.49-0.175-3.419-0.36-4.987-1.45c-1.821-1.265-3.073-3.873-3.916-6.732c-0.843-2.86-1.22-5.092-1.562-7.287      c-0.433-2.781-1.814-6.324-3.994-9.588c-2.181-3.264-5.159-6.247-8.787-7.907c-4.039-1.85-6.859-3.567-10.691-4.568      c-3.833-1.001-10.035-2.857-13.626-0.056c-0.476,0.371,3.007,4.185,4.253,3.191c3.014-2.401,10.424-1.661,19.875,2.688      c6.956,3.201,10.581,10.489,11.395,15.721c0.341,2.188,0.82,5.412,1.686,8.349c0.864,2.936,2.488,5.492,4.583,6.947      c1.784,1.239,4.209,1.316,5.681,1.488c0.735,0.087,1.322,0.193,1.532,0.375c0.21,0.181,0.161,0.465,0.066,0.7      c-2.925,7.291-2.138,13.211-2.692,16.504c-0.453,2.688-1.534,4.97-2.459,6.833c-1.831,3.69-4.627,8.292-6.327,10.393      c2.071-0.202,3.859-0.217,5.911-1.06c-2.948,6.134-7.018,11.809-11.192,15.25c-2.641,2.177-10.869,7.719-12.183,8.375      c1.035,1.162,3.449,3.336,6.155,4.718c-1.354,0.896-3.714,1.928-7.279,3.211c-3.974,1.43-8.776,2.877-13.264,3.915      c-10.166,2.354-32.276,0.849-34.634,0.385c0.465,3.357,2.01,5.644,4.23,7.563c-0.459,0.146-0.59,0.207-1.084,0.229      c-1.061-0.02-2.359-0.134-3.769-0.315c-2.818-0.365-6.077-1.006-8.791-1.707c-4.933-1.274-14.192-4.948-18.94-6.978      c-4.447-1.9-9.964-6.059-10.57-6.772c0.16,0.661-0.22,2.863-0.555,4.252c-0.783-1.221-1.854-2.096-3.273-3.406      c-1.743-1.608-3.931-3.308-5.513-4.458c-3.174-2.309-9.7-7.247-15.238-9.75c-6.541-2.955-16.946-8.896-17.654-9.577      c-0.631,0.556-1.305,3.521-1.404,5.899c-5.008-5.29-8.911-14.321-11.621-21.156c-1.957-4.938-6.527-19.314-6.813-20.743      c-0.893,1.285-5.145,8.349-6.139,11.827c-1.519-2.583-3.012-7.036-3.528-13.497c-0.686-8.563-2.229-14.965-3.265-16.108      c-1.965,1.072-6.247,4.88-8.584,7.993c-0.252-1.554-0.322-3.257-0.44-5.372c-0.139-2.477,0.101-5.283,0.165-7.091      c0.121-3.388,0.952-11.292,1.309-13.935c-2.281,0.903-3.498,1.26-6.375,2.249c0.775-8.101-0.752-18.939-1.09-25.934      c-0.258-5.344,0.295-10.612,1.085-16.522c0.761-5.697,2.816-19.712,4.837-23.121c-3.51,1.086-6.139,3.048-8.486,6.776      c-0.096-1.437-0.158-1.866-0.137-4.699c0.023-3.33,0.387-6.952,0.833-9.167c1.041-5.164,3.819-10.898,5.624-12.666      c-0.893,0.536-4.018,1.23-5.357,1.377c-1.157,0.127-3.076,0.427-5.229,1.158c1.29-1.428,3.375-4.03,3.768-6.439      c0.438-2.693,0.319-6.798,3.548-10.154c3.015-3.133,7.845-5.885,11.928-7.856c2.194-1.059,3.607-3.255,4.566-5.829      c0.959-2.573,1.362-5.792,1.36-8.923c-0.004-6.069-0.539-6.845-0.916-11.166c-0.21-2.4-0.542-4.865-0.863-6.742      c-0.163-0.949,0.087,0.401,0.145,5.681C2083.055,540.568,2083.004,545.386,2082.821,548.463z"/>
				<path fill="#3F3F3F" d="M2114.228,694.363c6.252,12.854,14.976,24.907,25.849,34.243c8.799,7.555,19.66,13.978,30.513,18.233      c5.366,2.105,11.41,3.914,17.16,4.558c11.497,1.287,21.316,1.608,31.271-0.416c9.956-2.025,18.842-7.341,25.961-19.018      c5.513-9.041,8.952-17.446,8.094-28.357c-0.536-6.812-2.213-12.957-8.236-19.774c-2.724-3.083-2.801-3.114,1.723,2.724      c3.746,4.833,5.372,11.534,5.892,18.126c0.519,6.592-1.643,13.843-7.979,24.234c-7.022,11.518-15.557,17.165-25.337,19.153      c-9.779,1.989-20.313,1.293-31.81,0.005c-20.979-2.349-41.088-16.459-54.934-31.743c-10.308-11.38-19.38-26.782-22.486-41.898      c-1.08-5.256-2.697-13.042-2.363-19.792c0.643-12.994,2.521-25.783,7.604-39.617c1.254-3.411,2.125-5.255,4.959-10.625      c-3.5,5.75-5.322,9.494-5.55,10.014c-6.073,13.866-8.203,24.393-9.284,39.569C2104.254,668.3,2108.887,683.384,2114.228,694.363      z"/>
				<path fill="#464646" d="M2132.437,598.37c-0.785,0.44,1.096,1.94,1.554,1.666c7.676-4.605,19.256-4.544,28.631-3.23      c15.236,2.135,26.693,0.801,32.361,0.718c-5.543-0.75-14.658-0.17-22.455-1.132c-7.671-0.946-11.004-2.425-20.754-2.41      C2146.325,593.989,2137.065,595.773,2132.437,598.37z"/>
			</g>
		</g>
		<g id="Type">
			
				<linearGradient id="SVGID_7_" gradientUnits="userSpaceOnUse" x1="-182.6907" y1="720.2986" x2="-180.5652" y2="720.2986" gradientTransform="matrix(-0.0393 -75.569 75.569 -0.0393 -52476.5156 -13156.1846)">
				<stop offset="0" style="stop-color:#B33313"/>
				<stop offset="0.3462" style="stop-color:#CB4625"/>
				<stop offset="1" style="stop-color:#C04223"/>
			</linearGradient>
			<path fill="url(#SVGID_7_)" d="M1904.832,509.677c-0.813-1.646-2.392-3.188,1.595-5.38c3.983-2.193,23.558-12.002,26.346-13.199     c2.789-1.194,22.646-11.415,32.373-14.043c7.847-2.124,19.151-2.189,26.154,1.813c9.478,5.413,10.381,14.532,10.828,19.56     c0.383,4.323-1.816,16.719-10.504,26.427c-5.238,5.857-13.316,12.776-23.465,16.695c-0.302,0.117-0.934,0.308-0.771,0.623     c1.199,2.311,16.754,32.462,21.165,39.021c3.334,4.951,11.144,22.074,15.189,28.639c1.956,3.161,4.842,9.03,7.622,13.845     c2.566,4.437,4.362,7.178,5.777,9.264c1.692,2.491,6.145,8.233,4.232,8.716c-3.938,0.991-3.287,3.932-6.523,5.278     c-0.813,0.34-5.711,1.971-7.92-3.485c-3.742-9.26-22.36-46.03-24.355-49.855c-5.626-10.807-23.932-47.941-24.452-49.28     c-0.175-0.448-0.325-0.769-0.771-0.697c-7.949,1.276-11.008,1.472-18.221,2.866c-0.523,0.103-0.655,0.009-0.632,1.603     c0.213,13.639-0.904,40.039-1.619,48.654c-0.177,2.133-0.638,9.642-3.154,8.854c-4.241-1.327-2.511-2.497-5.902-4.607     c-1.32-0.825-0.567-9.599-0.929-11.772c-0.14-0.855,0.786-53.75,1.594-58.521c0.822-4.847,0.3-16.188,0.896-22.715     c0.156-1.693,1.595-1.792,1.793-2.438c0.474-1.535,4.035-2.24,5.429-2.24s2.03-0.076,1.893,2.193     c-0.398,6.672,0.559,20.278,0,28.312c-0.054,0.801,0.495,0.688,2.075,0.54c7.768-0.723,20.081-1.974,26.363-4.349     c4.938-1.868,8.158-3.552,11.617-6.07c4.862-3.541,7.238-5.777,9.697-9.37c5.413-7.901,7.424-14.083,4.485-23.209     c-3.198-9.936-16.484-10.689-24.252-8.999c-5.608,1.224-9.932,3.009-15.022,5.177c-4.923,2.098-10.527,4.928-16.455,8.454     c-14.811,8.804-23.333,15.185-27.865,16.977c-1.242,0.491-2.302,0.679-1.964-0.784     C1907.618,510.25,1905.483,510.985,1904.832,509.677z"/>
			
				<linearGradient id="SVGID_8_" gradientUnits="userSpaceOnUse" x1="-182.3972" y1="724.8748" x2="-180.2725" y2="724.8748" gradientTransform="matrix(0.9698 -58.9689 58.9689 0.9698 -40688.4336 -10851.3965)">
				<stop offset="0" style="stop-color:#B33313"/>
				<stop offset="0.3462" style="stop-color:#CB4625"/>
				<stop offset="1" style="stop-color:#C04223"/>
			</linearGradient>
			<path fill="url(#SVGID_8_)" d="M1881.623,494.933c2.269-0.551,4.954,4.123,5.179,6.773c0.6,6.973,0.3,90.986,0.3,97.616     c0,2.591-0.062,5.559-3.188,4.182c-1.843-0.809-6.673,1.199-7.471-3.086c-0.583-3.14-1.593-17.53-2.091-21.714     c-0.447-3.76-1.004-36.821-0.597-43.229c0.396-6.278,1.791-29.586,2.39-33.171     C1876.742,498.719,1877.295,495.982,1881.623,494.933z"/>
			
				<linearGradient id="SVGID_9_" gradientUnits="userSpaceOnUse" x1="-182.262" y1="719.4333" x2="-180.137" y2="719.4333" gradientTransform="matrix(1.8156 -74.3541 74.3541 1.8156 -51366.3008 -14235.6006)">
				<stop offset="0" style="stop-color:#B33313"/>
				<stop offset="0.3462" style="stop-color:#CB4625"/>
				<stop offset="1" style="stop-color:#C04223"/>
			</linearGradient>
			<path fill="url(#SVGID_9_)" d="M1798.65,488.657c-15.137,0.32-22.926,3.557-29.684,7.471     c-9.686,5.612-19.657,17.385-22.853,25.204c-3.212,7.859-6.538,18.411-4.64,30.976c3.088,20.42,15.382,35.289,30.481,43.229     c21.573,11.35,47.353,2.156,55.282-2.59c12.624-7.554,25.39-24.078,26.756-39.295c1.291-14.384-2.826-29.355-11.616-42.483     C1831.029,494.216,1812.797,488.358,1798.65,488.657z M1801.488,498.713c12.226,0.325,23.734,5.313,33.082,18.475     c10.716,13.717,10.361,35.421,6.182,44.781c-5.563,12.451-22.658,24.993-34.133,26.297c-19.63,2.229-31.874-0.301-45.222-17.035     c-13.347-16.734-11.057-36.158-7.073-43.328c3.984-7.172,13.598-28.169,40.539-29.086     C1797.249,498.737,1799.444,498.694,1801.488,498.713z"/>
			<path fill="#0F0F0F" d="M1614.835,431.874c1.397,0.032,3.013,1.113,4.459,1.372c1.144,0.207,2.33,4.391,6.549,9.94     c9.043,11.889,19.876,31.666,28.649,49.447c5.641,11.427,15.655,31.586,28.379,55.202c12.901,23.938,19.513,34.317,27.726,47.303     c0.566,0.896,1.963,2.788,2.291,2.394c0.281-0.339-1.445-30.861-0.581-52.525c0.729-18.284,1.213-41.819,1.311-48.115     c0.155-9.586-0.455-35.966,1.257-44.515c1.005-5.015,1.972-7.458,2.87-9.121c1.159-2.148,6.31-4.476,10.346-7.185     c0.829-0.555-0.018,3.722-0.749,5.408c-1.617,3.717-1.287,5.464-2.072,8.475c-0.543,2.081-1.71,46.846-1.557,55.469     c0.053,3.146,0.092,48.62,0.092,53.403c0,4.778-0.261,43.684-0.261,44.883c0,1.192,0.11,2.545,0.377,3.488     c0.373,1.327,2.803,4.899,1.78,5.99c-0.826,0.886-2.853,0.525-9.006-1.604c-3.371-1.166-5.954-2.78-8.637-4.325     c-1.533-0.882-3.807-2.119-6.845-5.401c-2.011-2.175-26.766-45.5-35.043-60.903c-6.733-12.532-22.204-43.442-30.081-59.964     c-13.182-27.649-15.658-29.536-20.448-37.141c-1.274-2.022-0.819,0.584-0.819,3.571c0,2.988,0.473,31.349,0.326,43.35     c-0.256,20.859,0.045,38.975-0.831,48.946c-1.054,11.992-0.985,29.598-1.219,41.477c-0.183,9.497-0.339,14.84-0.526,17.177     c-0.167,2.035,0.953,6.678-0.411,5.876c-3.11-1.829-5.923-0.971-7.783-2.567c-2.323-1.997-1.684-4.875-1.686-7.359     c-0.014-9.164,0.741-17.968,0.643-24.306c-0.151-9.888,0.428-19.716,0.458-30.325c0.031-11.786-0.238-23.881,0.21-31.745     c0.21-3.666,0.217-45.175-0.187-56.438c-0.141-3.928,0.229-15.648,0.562-16.817c0.501-1.779-0.109-2.738,3.087-2.72     C1610.857,431.989,1612.09,431.817,1614.835,431.874z"/>
			
				<linearGradient id="SVGID_10_" gradientUnits="userSpaceOnUse" x1="-181.7087" y1="718.2068" x2="-179.583" y2="718.2068" gradientTransform="matrix(-1.92 -84.1411 84.1411 -1.92 -58844.3359 -13490.666)">
				<stop offset="0" style="stop-color:#B33313"/>
				<stop offset="0.3462" style="stop-color:#CB4625"/>
				<stop offset="1" style="stop-color:#C04223"/>
			</linearGradient>
			<path fill="url(#SVGID_10_)" d="M1892.985,267.109c15.139-0.316,42.106-0.427,44.298-0.45c7.156-0.07,20.899,0.459,25.522,0.47     c4.41,0.01,12.302-0.341,13.895-0.341c1.594,0,2.007,0.098,2.864,2.407c0.871,2.342,1.387,2.559,1.868,5.254     c0.161,0.902,0.006,3.837-4.368,3.747c-4.601-0.096-4.838,1.375-6.604,1.513c-12.629,0.985-18.106,1.516-29.469,2.179     c-0.515,0.031-0.688,0.211-0.859,1.228c-1.652,9.644,0.429,64.364,1.03,72.472c0.552,7.429,0.905,26.452,1.35,30.445     c0.252,2.276,0.66,6.435,1.182,10.556c0.174,1.364,1.289,6.47-0.893,6.179c-1.25-0.167-2.345-2.53-3.174-1.654     c-1.777,1.884-4.297,1.961-5.612,2.462c-1.819,0.692-1.558-0.357-2.802-2.638c-1.114-2.048-1.157-11.889-0.749-20.559     c0.223-4.715-1.352-11.376-0.974-20.583c0.389-9.422-1.387-33.475-2.637-43.85c-0.836-6.951-0.795-15.962-0.529-31.932     c0.021-1.274-0.018-1.569-1.069-1.618c-5.021-0.239-17.591,0.322-28.288-1.819c-5.263-1.054-7.775-1.048-10.014-0.896     c-1.191,0.078-4.031,0.05-4.23-1.992c-0.196-2.024,0.152-7.927,1.443-8.617c2.909-1.552,4.833-1.877,8.821-1.961H1892.985z"/>
			
				<linearGradient id="SVGID_11_" gradientUnits="userSpaceOnUse" x1="-181.1238" y1="718.6013" x2="-178.9991" y2="718.6013" gradientTransform="matrix(0.2792 -79.2576 79.2576 0.2792 -55063.875 -14152.0986)">
				<stop offset="0" style="stop-color:#B33313"/>
				<stop offset="0.3462" style="stop-color:#CB4625"/>
				<stop offset="1" style="stop-color:#C04223"/>
			</linearGradient>
			<path fill="url(#SVGID_11_)" d="M1842.822,263.225c-2.884,0.018-5.449,0.058-7.295,0.079     c-20.831,0.247-24.427,1.949-26.894,2.638c-2.142,0.602-1.759,1.359-2.265,2.03c-1.645,2.191-4.881-0.006-4.033,2.44     c0.393,1.131,0.996,1.743,1.992,2.341s0.718,2.121,9.561,2.441c0.785,0.029,0.79,0.259,0.501,1.493     c-2.329,9.955-6.244,27.043-8.469,38.201c-1.087,5.462-2.017,12.43-2.49,15.289c-0.079,0.501-0.15,0.374-0.948-0.223     c-0.398-0.3-0.564-0.505-0.72-0.713c-0.423-0.584-0.361-0.804-0.835-1.103c-0.339-0.212-0.746-0.117-1.25,0.203     c-0.639,0.406-1.013,0.706-1.793,1.887c-1.066,1.615-1.164,3.549-0.835,5.194c0.331,1.646,1.145,2.931,1.86,3.037     c0.514,0.076,1.348,0.028,1.558,0.246c0.214,0.218,0.214,0.334,0.115,0.813c-0.284,1.422-0.627,3.145-0.935,4.431     c-2.521,10.448-10.212,44.201-10.611,45.396c-0.398,1.195-1.297,7.707,1.646,9.96c6.176,4.732,7.046,2.214,7.421,0.449     c0.497-2.34,3.9-13.295,4.232-17.979c0.521-7.319,4.722-27.301,8.068-41.885c0.285-1.234,0.048-1.101,3.386-1.146     c15.864-0.215,32.936,0.029,43.828-0.399c3.919-0.151,4.179-0.478,4.383,0.399c1.266,5.389,4.334,16.958,5.628,21.621     c1.832,6.617,7.099,27.326,11.422,36.817c2.707,5.946,5.183,7.829,8.601,6.058c3.731-1.93,3.716,0.097,4.233-2.79     c0.24-1.336-2.114-10.044-2.79-13.048c-0.999-4.446-3.032-7.365-5.081-14.194c-2.275-7.592-3.985-13.777-5.777-19.474     c-2.769-8.815-5.883-20.435-7.24-24.712c-1.716-5.412-2.471-9.579-4.03-16.277c-1.208-5.189-3.438-16.076-5.054-22.462     c-1.537-6.065-3.035-11.106-3.449-13.81c-0.096-0.623-0.287-1.065,0.438-1.056c2.662,0.035,4.104-1.102,9.443-1.186     c2.285-0.035-0.241-8.892-1.948-9.572c-3.419-1.364-14.922-1.494-23.573-1.438V263.225z M1824.621,275.767     c9.177,0.482,13.362,0.178,23.154,0.014c0.948-0.016,1.659,0.204,1.711,0.75c1.163,12.201,7.566,34.84,10.099,50.264     c0.275,1.675,0.454,1.488-2.914,1.395c-10.807-0.299-20.98-0.623-42.009-0.125c-0.722,0.018-1.01,0.042-0.849-0.971     c0.82-5.034,2.322-16.223,3.412-21.316c1.081-5.04,2.042-9.581,2.989-13.148c0.788-2.974,2.023-7.165,3.162-15.588     c0.153-1.128,0.323-1.32,1.244-1.27V275.767z"/>
			
				<linearGradient id="SVGID_12_" gradientUnits="userSpaceOnUse" x1="-181.386" y1="714.7673" x2="-179.2612" y2="714.7673" gradientTransform="matrix(0.1031 -97.3279 97.3279 0.1031 -67826.9688 -17308.625)">
				<stop offset="0" style="stop-color:#B33313"/>
				<stop offset="0.3462" style="stop-color:#CB4625"/>
				<stop offset="1" style="stop-color:#C04223"/>
			</linearGradient>
			<path fill="url(#SVGID_12_)" d="M1689.315,224.478c0.67-0.668,0.04-5.764,1.251-6.559c2.313-1.519,7.947,0.156,7.947,3.676     c0,3.522,0.425,10.003,0.282,15.076c-0.142,5.071,0.281,64.941-0.282,71.842c-0.562,6.902,0.141,13.383,0,14.79     c-0.141,1.41,1.268,1.127,4.087,0.705c2.815-0.422,53.387,0.705,55.077,0.705c1.692,0,2.535,1.408,3.102-1.831     c0.562-3.242,2.112-87.197,2.813-89.593c0.707-2.394,0.767-10.113,1.481-11.796c0.387-0.918,6.721-0.793,8.098,0.562     c0.459,0.448,2.092,5.171,1.347,16.016c-1.45,21.024-1.414,60.156-2.19,77.91c-0.471,10.768,0.033,45.504-0.704,54.796     c-0.75,9.475-1.128,30.482-0.847,39.793c0.235,7.709,0.283,19.703,0.283,27.401c0,4.083,0,14.644,0,17.045     c0,6.269-6.902,3.169-9.084,0.21c-2.462-3.333-2.355-28.805-2.324-40.922c0.039-16.905-0.602-51.464-0.425-58.636     c0.11-4.449-0.362-11.167-0.423-18.454c-0.016-1.796,0.212-1.645-4.084-1.514c-16.169,0.492-48.143,0.093-54.619-0.05     c-1.242-0.027-1.859-0.39-1.918,0.917c-0.137,3.098,0.637,29.705,0.755,31.674c0.247,4.261-1.771,7.233-5.216,7.409     c-3.34,0.166-5.932-0.577-6.378-4.66c-0.524-4.771-0.004-14.054-0.731-33.046c-0.077-2.026,0.467-2.573-0.567-2.591     c-2.69-0.045-11.138,0.101-13.392-0.747c-2.254-0.844-5.021-2.932-4.772-5.651c0.265-2.929,4.283-5.982,8.734-6.273     c3.798-0.248,7.034-0.26,8.446-0.26c1.408,0,2.689,0.142,2.868-0.791c0.745-3.893,0.278-47.647,0.565-60.194     c0.204-9.013,0.039-22.58,0.072-28.243C1688.584,230.372,1688.23,225.564,1689.315,224.478z"/>
			<path fill="#0F0F0F" d="M1735.702,276.79c-0.7,2.643-7.477,2.086-8.146,1.243c-2.439-3.063-6.693-7.813-11.926-12.793     c-3.467-3.298-11.076-8.275-17.679-10.538c-6.641-2.277-18.521-4.672-33.09-2.166c-21.261,3.651-38.313,16.46-42.573,20.308     c-4.141,3.739-15.57,11.427-24.144,36.655c-5.097,14.995-2.004,38.279,3.496,49.875c1.703,3.592,6.277,19.464,34.791,37.611     c9.249,5.887,19.351,9.152,37.955,7.253c11.113-1.133,30.604-8.156,37.882-13.897c8.153-6.44,14.334-13.552,15.684-14.07     c1.153-0.439,6.341,3.028,5.637,5.422c-1.333,4.535-8.313,12.68-10.284,14.229c-1.97,1.548-15.494,12.184-23.382,14.861     c-7.889,2.677-30.781,6.973-45.641,3.593c-14.439-3.286-24.584-6.41-38.317-19.018c-13.431-12.328-21.051-27.162-23.665-35.006     c-2.607-7.817-6.693-23.313-5.774-36.484c0.841-12.129,5.42-27.398,12.464-38.245c7.24-11.149,17.199-23.15,28.607-29.771     c11.412-6.618,22.261-13.036,40.36-15.08c13.02-1.469,30.849,1.106,40.567,5.31c9.56,4.135,17.728,12.242,21.804,16.894     C1735.72,269.125,1736.432,274.034,1735.702,276.79z"/>
		</g>
	</g>
</g>
</svg>
